<?xml version="1.0" encoding="UTF-8"?>
<svg id="Layer_1" xmlns="http://www.w3.org/2000/svg" version="1.1" xmlns:xlink="http://www.w3.org/1999/xlink" viewBox="0 0 1023.4 651.6">
  <!-- Generator: Adobe Illustrator 29.2.1, SVG Export Plug-In . SVG Version: 2.1.0 Build 116)  -->
  <defs>
    <style>
      .st0 {
        stroke: #fff;
        stroke-width: 37px;
      }

      .st1 {
        fill: #fff;
      }

      .st2 {
        fill: #192f5d;
      }

      .st3 {
        fill: #bd3d44;
      }
    </style>
  </defs>
  <path d="M1021.6,98.2c-3.8-4.9-8.4-9-12.7-13-2.5-2.3-5-4.6-7.4-7-4.3-4.6-6-8.6-8-13.8-1.2-3.1-2.5-6.2-4.4-9.7-4.3-7.9-12.8-11.8-22.7-10.1-12.2,2-22.8,11.5-24.7,22.2-1.1,6.4-.5,12.4.1,17.6,1.1,9.7,1.4,15.5-4.9,21.6-7.6,7.3-18.5,9.6-30.1,11.9-4.7,1-9.2,1.9-13.6,3.1-20.2,5.9-32,18.2-35.4,36.7-.4,1.7-.5,3.5-.6,5.4-.5,4.7-.8,7.6-2.8,9.4-2.6,2.5-6.7,2.5-13.1,2-3.5-.2-7-.5-10.4.1-14.5,2.2-15.2,13.4-15.7,20.2-.2,3.7-.5,7.2-2.2,9.6-2.8,4-10.3,7.6-16.4,10.4-2.4,1.1-4.7,2.2-6.6,3.2-6.6,3.6-14.3,7.3-22.6,9.2.2-1.7.6-3.2,1-4.9,2.5-13,5.3-27.5-3.2-40.8-2.9-4.4-7.7-12-16.2-10.1.1-.4.1-.7.2-1.1.6-5,.2-16.7-2.5-22.3-3.5-7-8.8-8.5-13.1-9.6.2,0,.5,0,.6-.1,2.8-.4,4.9-2.5,5.3-5.3s-1.3-5.4-4-6.4c-4.4-1.6-8.6-4.2-13.1-7.1-9.8-6.2-22.1-14-37.6-5.3-7.4,4.2-9.1,4.9-15.6,2.9-1.4-.5-2.8-1.1-4.2-1.7-1.4-.6-3-1.3-4.7-1.9,1.1-.7,2.2-1.9,2.9-3.5,2.6-6.1.8-9.6-1.1-11.4-4.9-4.6-12.4-.7-16.3,1.3-4.4,2.3-8.2,5.6-11.8,8.9-5.2,4.7-9.4,8.5-14.9,8.5-1.9-.1-3.5-.5-5.3-1.1-2.8-.7-5.8-1.6-9.8-1.2h-.1c4.3-4.2,14-9.4,18.8-11.9,4.4-2.4,8.3-4.3,10.7-6.2,1.7-1.3,2.5-3.2,2.3-5.4-.2-2-1.4-3.8-3.4-4.8-7.2-3.5-14.6-3.4-22-3.4s-8.2.1-12-.6c-8.3-1.4-16.7-4.3-24.7-7l-3.4-1.1c-20.8-7-42.4-10.7-70.3-12.1-47.8-2.4-103.2-5.6-157.4-13.8-47.9-7.2-97.7-17.2-152.2-30.4-13.1-3.1-26.2-6.5-39.2-9.8-2.8-.7-6-1.8-9.5-3-9.2-3.2-19.8-6.8-28.4-5.8-9.8,1.2-12.6,8.4-13.6,14.8-2.3-1.8-5.3-3.2-9-4.6-1.6-.5-3.2-1-4.9-1.4-5.4-1.4-7.8-2.3-9-5-.8-1.8-2.5-3.1-4.4-3.5s-4,.2-5.4,1.7c-5.4,5.5-4.6,11.8-4.1,16,.1,1.2.4,2.4.4,3.6,0,3.2-.6,5.5-1.4,8.6-.4,1.3-.7,2.6-1,4.1-1,4.1-.1,7.4.5,10,.4,1.3.5,2.3.5,3-.2,1.8-3.2,6.4-4.8,8.9-1.2,1.9-2.3,3.6-3,4.9-3.6,6.7-6.7,13.9-9.7,20.9-6.1,14-12.5,28.7-22.6,39.4-8.4,9-8.6,13.7-8.5,23.5v4.2c0,10.6-2,17.9-7.9,28.1C0,186.4.9,193.4,1.9,200c.4,2.9.8,6,.7,9.4-.1,3.6-.7,7-1.3,10.2-1.4,8.3-3,16.8,3.7,27.8,1.9,3,4.1,5.3,6,7.3,2,2,3,3.2,3.5,4.2-2.2,2.5-3.5,5.6-3.5,5.8-2.6,6.7-1,15.5,1,23,1.8,7,4.8,13.2,7.8,19.3,1.9,4,4,7.9,5.5,12.1,1.1,3,1.2,6.6,1.3,10.4.2,5.3.4,11.4,3.5,16.9,4.6,8.3,12.6,11.4,19.8,14,4.8,1.8,9.2,3.5,12.1,6.5,1.7,1.8,3,3.8,4.3,5.8,2,3,4.3,6.4,7.7,9.5l2.6,2.3c4.8,4.1,7.4,6.5,7.6,10.7.1,2-.1,3.7-.4,5.3-.8,7-.6,13.4,12.5,17.2,5.6,1.6,11,2.2,16.2,2.9,7,.8,13.6,1.7,20.2,4.6,10.7,4.7,20.3,11.2,30.5,18.1,10,6.7,20.3,13.8,31.7,18.8,12.4,5.5,25.8,8.5,37.2,10.8,1.8.4,4.2,1,6.8,1.6,13.3,3.4,25,5.9,32.4,2.2,2.8-1.4,4.2-3.8,5-5.5.2-.4.6-1.1.4-1,1.6-1,3.8-.5,7.4.2l1.6.4c8.9,1.8,17.5,6,24.1,12.1,5.4,4.9,10.2,11.5,14.4,20,1.6,3.1,2.6,6.5,3.8,9.8,2.5,7.4,5.3,15.1,11.2,21,2.6,2.6,18.5,14.9,27,14.5,8.2-.6,10.9-7.4,12.7-11.9,1.1-2.5,2-5,3.4-5.8,3.1-1.7,13.6.5,20.8,4.4,7.7,4.2,12.2,13.3,16.7,22.1,1.2,2.4,2.4,4.8,3.6,7.1,2,3.6,4,7.8,6.1,12.1,10.2,20.8,22.8,46.6,46.6,51.1,8.6,1.6,14.6.6,18.7-3.2,6-5.6,4.8-15,3.6-23.9-.8-6.5-1.8-13.3,0-17.5,4.6-10.6,22-20,36.7-25.4,1.3-.5,2.5-.8,3.5-1.2,6-1.9,9.2-4,10.4-9.1,7,1.7,11.8-2.9,15-5.9,1.2-1.2,2.6-2.5,3.6-2.9,5.8-2.3,13.6-.1,21.7,2,6.5,1.8,13.1,3.5,19.6,3.4.5,0,1.1-.1,1.6-.2.2.2.6.5,1,.7,6.2,4.6,15.7,7.1,23.5,4.3,3.8,1.4,8.5.2,11.3-.6.2-.1.6-.1,1-.2.6,1.9,1.8,4.3,4.6,5.6,3.8,1.7,7.7,0,10.3-1.4,1.1-.6,4.6-2.6,5.5-6.5,1-3.7-1.1-6.7-2.4-8.8-.4-.6-.8-1.2-1.2-1.9-1-1.9-2-3.1-3-4.3.1-.5.2-1.1.6-2.2,1.4-4.9,3.4-6.2,4.9-6.8,3.7-1.4,6.5-1.3,9.2-1.1.6,0,1.3.1,2,.1,1,1.9,3,3.1,5,3.2,6.6.2,12.8-1.4,19-3,7.8-2,15-4,21.4-1.6,3.6,1.3,6.5,3.4,9.4,5.4,6.7,4.8,14.3,10.2,28.1,2.3,1.6-1,3-1.9,4.2-2.9,2.9-2.2,3-2,4.3-1.6s3.4,3.1,4.9,5c1.6,2,3.2,4.1,5.2,5.8,11.6,9.8,14.8,13.3,9.6,26.9-.6,1.7-.5,3.6.5,5.2s2.5,2.6,4.3,2.9c1.1.1,1.7.4,1.9.4,0,.7-.1,1.8-.1,2.8-.1,1.9-.4,4-.1,6.1.5,5.2,1.4,10.8,8.5,11.6.5,0,.9.2,1.2.5.2.1.4.4.5.5-.1,1.4-.4,3.8.7,7.2,2.5,7.7,11.5,12.6,20.6,17l1.6.8c.2.1.5.2.6.2-.1.8-.2,1.8,0,2.8.5,5.5,1.3,11.6,6.1,14.4,2.6,1.6,5.4,2.3,8,2.3s5.5-.8,8-2.6c13.3-9.6,14.4-43.8,13-50.8-2.6-13.4-10.4-27.5-18.7-42.2-15.7-28.2-30.7-54.7-11-77.5,2.3-2.6,4.8-4.9,7.4-7.2,3.8-3.5,7.8-7,11.2-11.8,2-2.9,3.8-6,5.8-9,3.1-5.3,6.1-10.2,10.1-14,2-1.9,4.7-3.5,7.4-5,3.2-1.8,7-4,10.1-7.1,3.5-3.5,5.6-7.6,7.7-11.4,1.4-2.6,2.8-5.2,4.4-7.2,1.9-2.4,4.4-3.4,7.6-4.7,2.9-1.2,6.2-2.4,9.1-5,4.6-4,7.3-11.6,8.6-23.8.6-5.4,1.7-23.6-8.8-30.8-3-2-6.1-2.4-8.3-2.4-1.4-4.7-2.8-10-4.1-15.4,1.4,1,1.7,1.3,1.7,1.7,0,2,1.2,4.1,3,5,1.8,1.1,4.1,1.1,5.9,0l3.4-1.8c7.2-3.7,16.9-8.8,14.3-23.5-1.2-6.6-5.8-12.7-10.3-18.2,3.4-2.5,4.8-6.8,5.9-11.2.6-2.8,1-5.3,1.2-7.6.5-4.2.8-7,3.4-10.6,3.6-4.9,8.9-8.3,14.5-11.9,5.9-3.7,11.9-7.6,16.7-13.6.4-.5.6-1,.8-1.4,1.3.7,2.8,1,4.2.6,3.1-1,5-3.7,4.1-7,1.1-3.1,12.7-9.6,16.4-11.6,2.4-1.3,4.3-2.4,5.5-3.2,1.3-1,2.3-2.4,2.5-4,.2-1.6-.1-3.2-1.1-4.6-.5-.6-1-1.4-1.4-2.3-1.6-2.5-3.2-5.3-5.6-7.1-3.2-2.4-6-1.9-7.3-1.3-1.7.6-2.9,1.8-3.6,3.5-1.4-1.7-2.8-3.4-3.1-4.3-.8-3.4,1-14,2.8-19.1,1-2.8,1.4-3,3-4.1,1.3-1,3.1-2.2,5.3-4.4,3-3.4,4.3-7.1,5.3-10.1.5-1.7,1-3.1,1.7-4.4,1.6-2.9,1.8-2.9,4.3-3.7,1.3-.5,2.9-1,4.8-1.8,6.8-3,11.2-7.6,15.4-11.9,1.7-1.8,3.5-3.6,5.4-5.4,1.3-1.1,2-4,2-5.6-.5-1.3-1-2.7-1.8-3.6h0ZM1006.9,104.6c-3.8,4-6.8,7.1-11.5,9.2-1.4.6-2.6,1-3.6,1.3-4.3,1.4-7.4,2.8-11,9.2-1.3,2.3-2,4.6-2.6,6.6-.7,2.4-1.3,4.2-2.6,5.6-1.2,1.3-2.2,1.9-3.2,2.6-2.9,2-5.3,4-7.4,10-1.7,4.6-4.9,18.6-3.1,26,1,4.1,6.4,11,11.8,14.8-3.2,2-6.4,4.2-8.8,6.5-.6-.2-1.3-.5-2-.6-5.2-.7-8.2,3.7-10,6.4h0c0,.1-.5.1-.5.1-1.9,0-3.7,1-4.8,2.5l-2,2.9c-1.3,2-1.4,4.6-.2,6.5-2,1.4-4.2,2.8-6.4,4.2-6.4,4.1-12.8,8.2-17.8,15-4.4,6.1-5,11.5-5.6,16.2-.2,1.9-.5,4-1,6.1-.5,2-1,3.2-1.2,3.8-.5-.1-1.3-.4-2.6-1-2.4-1.1-5.3-.4-7,1.7s-1.9,4.9-.4,7.1c1.7,2.5,3.8,5.2,6.1,7.9,4,4.8,8.5,10.3,9.4,14.6,1,5.2-.4,6.6-5.9,9.5-1.8-2.2-4.2-3.5-5.9-4.6-1.3-.7-2.8-1.7-3.2-2.3-1.3-1.9-1.4-5.3-1.8-8.9-.2-4-.6-8.5-2.5-12.8-.8-1.8-2.5-3.1-4.4-3.5-2-.4-4,.4-5.4,1.8-6.8,7.1-1.4,31.9,2.8,47.6-1-.4-1.8-.7-2.8-1-3-1.1-6.4.4-7.6,3.4-1.2,2.9,0,6.4,2.9,7.7,1.2.6,2.4,1.4,3.6,2.2,2.6,1.7,5.5,3.6,9.1,4.4,2.8.6,5,.5,7,.2,2-.2,2.5-.1,3,.1,3,2.2,4.6,10.6,3.6,19.7-1.1,10.4-3.4,15-4.6,16-1.4,1.2-3.5,2-5.8,3-3.8,1.6-8.6,3.5-12.6,8.4-2.3,2.9-4,6-5.6,9.1-1.7,3.2-3.4,6.4-5.6,8.6s-4.7,3.5-7.6,5.2c-3.1,1.8-6.7,3.8-9.8,6.8-5.2,4.9-8.6,10.8-12,16.6-1.7,2.8-3.4,5.6-5.2,8.3-2.5,3.6-5.9,6.6-9.4,9.7-2.9,2.6-5.9,5.3-8.5,8.3-25.2,29-6.7,62,9.6,91.2,7.8,13.9,15.1,27,17.4,38.6,1.2,6.2-1.3,33.8-8.3,38.8-.4.2-1,.7-2.3.1-.2-.6-.5-1.7-.6-3.5,3.5-3.1,3-6.5,2.3-8.2-1.8-4.7-6.2-5.6-8.4-6.1-.5-.1-.8-.1-1.2-.2l-1.7-.8c-3.1-2-12.7-6.8-13.9-10.3-.4-1.1-.2-1.4-.2-2.3.5-3.7-.1-6.7-4.6-10.6-2-1.8-4-2.6-5.5-3,0-.4-.1-.7-.1-1.2-.1-1.4,0-2.9.1-4.1.4-3.6.8-10.2-5.3-13.8,4.3-16.4-3-24.2-15-34.3-1-.8-2.2-2.4-3.4-4-2.6-3.5-5.6-7.3-10.3-9-7.6-2.8-12.1.7-15.5,3.2-1,.7-1.9,1.4-3,2-7.2,4.1-9.2,2.6-15.2-1.7-3.1-2.2-7-4.9-12.1-6.8-9.8-3.6-19.8-1.1-28.6,1.2-2.9.7-5.6,1.4-8.4,1.9.2-3.6,0-7.2-.5-9.5-.7-2.9-2-4.9-4-6-1.9-1.2-4.3-1.2-6.1,0-1.9,1.1-3,3.2-2.9,5.4.2,4,.1,6.2,0,7.6h-.5c-3.2-.2-8.2-.5-14.4,1.9-8.8,3.5-11.3,11.9-12,14.6-1.4,4.7-1.6,7.7-.2,10.4-2-.2-4.6.6-6.8,1.2-1,.2-2.2.6-3.2.7-.7-.7-1.6-1.2-2.4-1.4-1.8-.6-3.7-.2-5.2.8-3.5,2.5-10,1-13.9-1.9-.7-.5-1.7-1.9-2.5-3.1-2.4-3.5-7.4-10.6-16.2-7.4-1.9.7-3.4,2.3-3.8,4.3-.1.5-.1,1.1-.1,1.6-1.1-.2-2.2-.6-3.2-.8-9.2-2.5-19.7-5.4-29.2-1.7-3,1.2-5.4,3.4-7.4,5.3-1,.8-2.4,2.2-3.4,2.8-.2-.5-.4-1-.5-1.3-1-2.5-3.2-7.4-8.6-7.3-4,.2-5.9,2.5-6.6,3.8-2.2,3.7-.5,7.8.8,10.8,0,1.7,0,2.5.1,2.6-.6.2-1.8.6-2.8,1-1.1.4-2.4.7-3.8,1.3-10.7,3.8-36.4,14.8-43.7,31.9-3.1,7.3-2,16.1-1,23.9.6,4.8,1.7,12.1.1,13.6-.5.5-2.9,1.2-8.2.1-17.9-3.4-29-26.3-38-44.6-2.2-4.6-4.3-8.8-6.4-12.6-1.2-2.2-2.3-4.4-3.5-6.7-5-10-10.7-21.2-21.7-27.2-5.6-3.1-22.4-9.8-32.3-4.4-5,2.9-7.1,7.8-8.6,11.8-.6,1.4-1.7,4-2.3,4.4-3-.2-14.3-7.3-17.8-10.9-4-4.1-6.1-10.1-8.4-16.6-1.3-3.8-2.8-7.7-4.4-11.3-4.9-10-10.6-17.6-17-23.6-8.4-7.7-18.7-12.8-29.9-15l-1.4-.2c-4.3-.8-10.2-2.2-15.8,1.1-2.6,1.4-4,4-4.9,5.5-.2.4-.5.8,0,.6-4,2-17.5-1.4-24.1-3.1-2.9-.7-5.5-1.3-7.4-1.8-10.8-2-23.3-4.9-34.6-10-10.4-4.7-19.9-11-29.9-17.9-10.1-6.8-20.6-14-32.3-19.2-8.2-3.6-16-4.6-23.5-5.5-5-.6-9.7-1.2-14.5-2.5-2.9-.8-3.7-1.4-4.1-1.4,0-.6.1-1.8.2-2.8.2-2,.5-4.4.5-7.2-.4-9.7-6.7-15-11.8-19.3l-2.4-2.2c-2.3-2-4-4.6-5.8-7.2-1.7-2.5-3.4-5-5.5-7.3-4.7-5-11-7.4-16.6-9.5-6-2.3-11-4.2-13.6-8.6-1.7-3-1.8-7.1-1.9-11.5-.1-4.4-.4-9.4-2-14.2-1.7-4.6-3.8-9-6-13.3-2.9-5.6-5.6-11.2-7.1-16.9-.8-3.2-3-11.8-1.9-15,.6-1,3-4,3.5-4.6.8-1,1.3-2,1.4-3.2.8-7.4-3.6-12-7.1-15.6-1.7-1.7-3.2-3.4-4.4-5.3-4.3-7.1-3.5-12-2.2-19.4.6-3.5,1.3-7.4,1.4-11.9.1-4.4-.4-8.2-.8-11.4-.8-6-1.3-9.6,1.9-15.2,7-12.1,9.5-21.4,9.5-34.1v-4.3c-.1-8.2-.1-9.4,5.3-15.2,11.4-12.2,18.2-27.7,24.7-42.7,3.1-7.1,6-13.7,9.4-20,.6-1.1,1.4-2.5,2.5-4.1,2.9-4.4,6.1-9.5,6.7-13.9.4-2.9-.2-5.3-.6-7.3-.5-2-.7-3.2-.4-4.6.2-1.3.6-2.5,1-3.7.8-3.4,1.8-6.8,1.8-11.5s-.1-2.5-.2-3.8c2.6,1.2,5.4,1.9,7.7,2.5,1.3.4,2.8.7,4.1,1.2,6.6,2.3,7.9,3.6,10.6,11.5.8,2.3,2.9,4,5.3,4.1,2.4.2,4.7-1.2,5.8-3.4,2-4.2,2.4-8.9,2.6-13,.6-8.2,1.3-8.6,3.6-8.9,5.9-.7,15.4,2.5,23,5.2,3.8,1.3,7.3,2.5,10.4,3.4,13.1,3.4,26.3,6.7,39.5,9.8,54.8,13.2,105,23.3,153.2,30.5,54.8,8.3,110.6,11.5,158.6,13.9,26.8,1.3,47.4,4.9,67.1,11.5l3.4,1.1c8.5,2.9,17.3,5.9,26.5,7.4,3.8.7,7.7.8,11.4.8h4.1c-11.2,6.1-22.1,13.2-22.2,23.2,0,2.2-.1,7.7,4.2,10.3,4,2.4,7.9.1,10.1-1,.5-.2,1-.6,1.1-.7,1.8-.2,3.4.2,5.5.8,2,.6,4.7,1.3,8,1.4,10,.6,17.3-6,23.5-11.6.5-.4.8-.8,1.3-1.2,0,.2-.1.5-.2.8-.6,2.2.1,4.4,1.7,6,1.7,1.6,4,2,6,1.2,2.5-1,5,.1,9.1,1.9,1.8.7,3.5,1.6,5.3,2.2,11.2,3.6,16.7,1.1,25.2-3.8,8.4-4.8,14.5-1.7,24.4,4.4-1.2.4-2.3,1-3.5,1.6-.1,0-.2.1-.4.1-1.9-2-4.1-3.2-6.5-3.7-7-1.3-12.5,4.4-16.9,8.9-1.4,1.4-2.8,2.9-4,3.7-1.1.8-2.6,1.1-5.2,1.3-2.9.4-6.5.8-9.7,3.1-5.2,3.7-7.1,11-8.8,17.5-.6,2.3-1.1,4.3-1.8,5.8-1.2,2.8-.1,6,2.4,7.6,1,.6,1.7.8,3.2.8-4.4,12.8-7.9,26.9-1.7,41.2.1,6,1.9,17.5,7.8,23.9,2.6,2.9,6,4.4,9.6,4.6h.4c13.1,0,20.2-19,20.9-27,.8-9-1.6-16.9-3.7-23.9-3.2-10.7-5.5-18.5,2.3-28.2,1.4-1.8,3.4-3.4,5.4-5,4.7-4,11-9.5,11.5-17,3,1.7,5.9,3.1,10.2,4.6,1.2.4,2.3.7,3.4,1,3.8,1.1,4.7,1.3,5.8,3.5,1.2,2.5,1.9,11.4,1.3,15.4-.2,1.2-2.5,4.9-3.6,6.8-3,4.9-4.7,7.7-3.7,11,1.3,5.2,4.7,6.5,6.5,6.8,5.8,1.2,9.7-4.3,12.7-8.3.5-.6.8-1.2.4-.8,1.2-.8,1.9-1,1.9-1,.7.4,1.9,2,3.7,4.8,5.9,9.2,3.8,20.3,1.6,32-.8,4.7-1.7,9.2-2.2,13.8-.1,1.8.5,3.5,1.7,4.8,1.2,1.2,3,1.9,4.8,1.8,13.4-1.1,25.2-6.5,34.9-11.8,1.7-1,3.8-1.9,6-2.9,7.8-3.6,16.6-7.8,21.2-14.4,3.6-5.2,4-10.9,4.3-15.7.5-7.3.8-8.4,5.5-9.1,2.2-.4,5-.1,7.9,0,7,.5,15.6,1,22.2-5.4,5.2-5,5.8-11.6,6.2-16.9.1-1.4.2-3,.5-4.3,2.5-14,11-22.7,26.9-27.2,4.1-1.2,8.3-2,12.6-2.9,12.1-2.5,25.9-5.3,36-15,10.8-10.4,9.6-21.6,8.5-31.4-.6-4.9-1.1-9.6-.2-14.2,1-5.8,7.7-11.3,14.9-12.5,3.4-.6,7.8-.2,10.2,4.1,1.6,3,2.8,5.8,3.8,8.4,2.3,5.6,4.6,11.5,10.7,17.6,2.5,2.6,5.3,5,7.9,7.6,3,2.6,5.8,5.3,8.4,8-.7.2-1.5,1.1-2.3,1.9h0s0,0,0,0ZM685.9,198.1c2,6.5,3.8,12.7,3.2,19.3-.5,5.9-5.8,16.1-8.9,16.1s-.7-.2-1.2-.7c-3-3.2-4.8-12.2-4.6-16.7,0-1-.1-1.9-.6-2.9-6-12.5-1.3-25.3,3.6-38.9,2.4-6.8,4.9-13.8,6.1-20.9,0-.4.1-.6.1-1,2.3-.5,4.8-1.3,7.2-3,1.7-1.2,3.6-3,5.5-5,1.8-1.8,5.2-5.3,6-5.6,0,0,.7.5,1.8,2.8,1.3,2.9,0,4.8-6.8,10.7-2.4,2-4.9,4.2-7,6.7-12,14.6-8,27.7-4.6,39.1h0Z"/>
  <path d="M255.1,612.9c-3.2-3-6.4-5.9-8.2-9.1l-.6-1.2c-2.6-5.2-7-13.7-18.7-13.7h-.1c-10,0-15.1-2.4-19.2-16.1-2.6-9,.5-19.9,3.8-31.4,6.5-22.7,14.5-50.9-28.1-65.4-3.8-1.3-7.8-3.8-12-6.6-10.4-6.8-23.4-15.2-39.4-4-1.7,1.2-4.6,1.8-7.7,2.5-6.8,1.4-17.3,3.7-18.5,16.9-.4,3.8,1.8,6.8,3.4,9,0,0-.2,0-.2.1-3.6,1.2-7.6,1.8-11.8,2.4-2,.2-4.1.6-6,1s-3.6,1.7-4.4,3.5c-.8,1.8-.7,3.8.4,5.5.6,1,.8,2.9,1,4.9.5,5.3,1.4,14.3,13,17.5l1.7.4c-2.3.6-4.7,1.7-6.7,3.5-4.6-1.6-10-2.5-14.5.2-5.6,3.5-6,10.2-6.2,15.6-.1,2.2-.2,4.6-.7,5.9-1.3,3.7,1,6.8,2.4,8.6.2.4.6.7.7,1.1,1,1.6,2.2,3.4,3.4,5,.8,1.2,2,2.9,2.8,4.1-2,4.1-3.8,8.8-1.1,12.6,2.9,4,7.4,3.4,13.6,2.4,1.2.8,3.2,3,4.6,4.4-10.3,9-23.4,10.6-37.3,12.2l-3,.4c-3.2.4-5.5,2.5-7.2,4-.5.4-.8.8-1.3,1.1-1.4,1.1-2,3-2.3,4.8-.2,1.8.8,3.8,2.2,5,1.2,1.4,4,4.7,8.3,3.1,5.8-2,12.2-2,19.1-1.9,10.2.1,21.5.2,31.7-7,1.6-1.1,3.5-1.9,5.5-2.8.4,1.3,1,2.6,1.8,4,1,1.7,2.8,2.8,4.7,2.9h.7c6.8,0,19.3-6.6,21.7-14.4.6-1.9.6-4.1-.2-6.4.4-.1.8-.1,1.2-.1,1.6-.2,3-.5,4-.4,7.3,1.2,12.1-3.7,15.6-7.2,3.8-3.8,4-3.7,5.4-2.6,6.4,4.6,13.6,7.2,20.4,9.7,12,4.4,22.4,8.3,27.5,20.9,3.4,8.4,9.1,15.5,14.6,22.3,2.4,2.9,4.7,5.9,6.8,8.9,1.1,1.6,3,2.5,4.9,2.5h5.8c1.2,0,2.3-.4,3.2-1,.8-.6,2-1.1,3.1-1.7,4.1-2,8.6-4.2,9.2-9.2,2.3-13.3-5.9-20.8-12.5-26.9h0s0,0,0,0ZM196.8,576.1c1.3,4.3,2.8,8,4.6,11.2-1.6-.6-3-1.2-4.6-1.7-6.5-2.4-12.6-4.6-17.5-8.2-9.8-7.1-17.4.4-20.9,4-2.4,2.4-4.1,4-5.3,3.8-.8-.1-1.7-.2-2.5-.2.5-1.2,1-2.3,1.4-3.4l1.2-2.8c1-2.3-.1-4.7-1.9-6.4-1.8-1.7-4.8-1.9-7.1-.8-3.1,1.4-4.7,3.4-4.8,6-.1,0-.2.1-.4.1-3.2,1.2-10,3.5-10.6,12.7-.2,3.5-3.8,5.2-11.5,8-2.5,1-5,1.9-7.6,3.1.2-.2.6-.5.8-.7,1.3-1.1,4.9-5.6,5-9.2,0-1.7-.7-3.4-1.9-4.6-.8-.8-1.8-1.8-2.8-2.8-3.7-4-7.8-8.4-13.2-8.4h-.8c1.8-4.7-1.6-9.5-4.9-14-1-1.4-2-2.8-2.8-4.1-.4-.7-1-1.4-1.6-2.3.5-2.2.6-4.6.7-6.7.1-2,.2-5.4.4-6,0,0,1.7-.5,6.8,1.8,2.2,1,4.8.6,6.4-.1,1.4-.6,2.6-1.8,3.2-3.4.5-.5,2.6-1,3.8-1.3,3.6-.8,8.4-2.2,11-6.6,1.8-3.1,2.2-6.8,1-11.5-.5-1.8-1.8-3.4-3.5-4.1-1.8-.7-3.7-.6-5.4.5-.7.4-.8.5-4-.5-.8-.2-1.8-.6-2.6-.8-3.5-1-3.7-2-4.2-7.1,0-.6-.1-1.3-.2-2,4.2-.6,8.5-1.3,12.8-2.6,1.9-.6,7.6-2.5,9.2-7.6,1.6-4.7-1.2-8.5-3.1-11-.5-.6-1.1-1.6-1.2-.8.4-3.7,1.6-4.6,9-6.1,4-.8,8.4-1.8,12.1-4.4,8.8-6.2,15.2-2.6,25.8,4.2,4.6,3,9.4,6.1,14.6,7.9,31.8,10.8,27,27.5,20.4,50.6-3.5,12.8-7.3,26-3.7,38.3h0ZM253.4,638.1c-1,.5-1.8,1-2.8,1.4h-1.1c-1.8-2.3-3.6-4.6-5.4-6.8-5.2-6.5-10.1-12.6-12.8-19.3-2-5.2-4.8-9.2-7.9-12.6,1.3.1,2.5.2,4.2.1,4,0,5.5,2,8,7.1l.7,1.3c2.6,5,6.7,8.8,10.6,12.4,6,5.5,9.5,9.1,9.2,14.9-.7.6-1.9,1.2-2.8,1.6h0Z"/>
  <path d="M357.3,589.1q0,0,0,0c-3.6,0-8.5,1.3-12.5,7.4-4.7,7.4-4.1,19.2-1.4,27,2.4,7.1,6.6,12,11.8,14,.7.2,1.4.4,2,.4,1.1,0,2.3-.4,3.2-1l24.2-15.2c1.3-.8,2.3-2.3,2.6-3.8s0-3.2-.8-4.6c-7.2-11-18.2-24.2-29.2-24.2h0ZM357.4,624.7c-1-1.2-1.9-2.9-2.6-5-2.2-6.5-1.7-13.8.1-16.7,1.3-2,2.3-1.9,2.3-1.9,2.9,0,9,4.7,15.7,13.8l-15.5,9.8h0Z"/>
  <path d="M345.6,592.1l7.8-7.1c1.4-1.3,2.2-3.2,1.9-5.2s-1.3-3.6-3-4.6c-.6-.4-1.6-1-2.5-1.6-3.8-2.5-8.6-5.6-13.1-6.5-.6-1.7-2-3-3.8-3.6l-11.8-3.6c-1.6-.5-3.4-.2-4.8.6l-6.2,3.7c0-.8.1-1.7-.1-2.6-1.1-5.4-6-12.2-12-13.9-4.1-1.1-8,.1-11,3.5-5,5.6-3.2,10.8-2.2,12.7,3,5.6,11,8,17,8s1.7,0,2.4-.1c.8-.1,1.4-.5,2.2-.8.2,1.4.7,2.8,1.8,3.7,1.2,1.1,2.5,2.4,3.7,3.7,3.6,4,7.7,8.4,13.3,9h1.1c2.4,0,4-1,4.9-1.8,1.3,1.4,2.6,2.9,4.2,4.3l1.7,1.7c1.1,1.2,2.5,1.9,4.2,2h.4c1.4-.1,2.9-.6,4-1.7h0ZM291.5,555.1l4,3.5h0c0,.1-4-3.5-4-3.5Z"/>
  <path d="M265.3,550.7c2.5-2.5,5.5-8.3-2.6-19.2-1-1.3-2.5-2.2-4.1-2.4-1.7-.2-3.2.2-4.6,1.3l-9.5,7.9c-1.4,1.2-2.2,2.9-2.2,4.7s1,3.5,2.4,4.7c4.9,3.7,9.6,5.6,13.7,5.6,2.6,0,5-.8,6.8-2.6h0Z"/>
  <path class="st3" d="M119.7,83h432v324H119.7"/>
  <path class="st0" d="M119.7,120.4h432M119.7,170.1h432M119.7,220.1h432M119.7,270h432M119.7,320h432M119.7,369.9h432"/>
  <path class="st2" d="M119.7,83h246.2v174.5H119.7"/>
  <path class="st1" d="M139.9,90.5l6.1,18.2-15.5-11.5h18.9l-15.5,11.5,6.1-18.2Z"/>
  <path class="st1" d="M181.1,90.5l6.1,18.2-15.5-11.5h18.9l-15.5,11.5,6.1-18.2Z"/>
  <path class="st1" d="M222.2,90.5l6.1,18.2-15.5-11.5h18.9l-15.5,11.5,6.1-18.2Z"/>
  <path class="st1" d="M263.4,90.5l6.1,18.2-15.5-11.5h18.9l-15.5,11.5,6.1-18.2Z"/>
  <path class="st1" d="M304.6,90.5l6.1,18.2-15.5-11.5h18.9l-15.5,11.5,6.1-18.2Z"/>
  <path class="st1" d="M345.1,90.5l6.1,18.2-15.5-11.5h18.9l-15.5,11.5,6.1-18.2Z"/>
  <path class="st1" d="M160.8,108l6.1,18.2-15.5-11.5h18.9l-15.5,11.5,6.1-18.2Z"/>
  <path class="st1" d="M202,108l6.1,18.2-15.5-11.5h18.9l-15.5,11.5,6.1-18.2Z"/>
  <path class="st1" d="M243.2,108l6.1,18.2-15.5-11.5h18.9l-15.5,11.5,6.1-18.2Z"/>
  <path class="st1" d="M283.7,108l6.1,18.2-15.5-11.5h18.9l-15.5,11.5,6.1-18.2Z"/>
  <path class="st1" d="M324.8,108l6.1,18.2-15.5-11.5h18.9l-15.5,11.5,6.1-18.2Z"/>
  <path class="st1" d="M139.9,125.6l6.1,18.2-15.5-11.5h18.9l-15.5,11.5,6.1-18.2Z"/>
  <path class="st1" d="M181.1,125.6l6.1,18.2-15.5-11.5h18.9l-15.5,11.5,6.1-18.2Z"/>
  <path class="st1" d="M222.2,125.6l6.1,18.2-15.5-11.5h18.9l-15.5,11.5,6.1-18.2Z"/>
  <path class="st1" d="M263.4,125.6l6.1,18.2-15.5-11.5h18.9l-15.5,11.5,6.1-18.2Z"/>
  <path class="st1" d="M304.6,125.6l6.1,18.2-15.5-11.5h18.9l-15.5,11.5,6.1-18.2Z"/>
  <path class="st1" d="M345.1,125.6l6.1,18.2-15.5-11.5h18.9l-15.5,11.5,6.1-18.2Z"/>
  <path class="st1" d="M160.8,143.1l6.1,18.2-15.5-11.5h18.9l-15.5,11.5,6.1-18.2Z"/>
  <path class="st1" d="M202,143.1l6.1,18.2-15.5-11.5h18.9l-15.5,11.5,6.1-18.2Z"/>
  <path class="st1" d="M243.2,143.1l6.1,18.2-15.5-11.5h18.9l-15.5,11.5,6.1-18.2Z"/>
  <path class="st1" d="M283.7,143.1l6.1,18.2-15.5-11.5h18.9l-15.5,11.5,6.1-18.2Z"/>
  <path class="st1" d="M324.8,143.1l6.1,18.2-15.5-11.5h18.9l-15.5,11.5,6.1-18.2Z"/>
  <path class="st1" d="M139.9,160.7l6.1,18.2-15.5-11.5h18.9l-15.5,11.5,6.1-18.2Z"/>
  <path class="st1" d="M181.1,160.7l6.1,18.2-15.5-11.5h18.9l-15.5,11.5,6.1-18.2Z"/>
  <path class="st1" d="M222.2,160.7l6.1,18.2-15.5-11.5h18.9l-15.5,11.5,6.1-18.2Z"/>
  <path class="st1" d="M263.4,160.7l6.1,18.2-15.5-11.5h18.9l-15.5,11.5,6.1-18.2Z"/>
  <path class="st1" d="M304.6,160.7l6.1,18.2-15.5-11.5h18.9l-15.5,11.5,6.1-18.2Z"/>
  <path class="st1" d="M345.1,160.7l6.1,18.2-15.5-11.5h18.9l-15.5,11.5,6.1-18.2Z"/>
  <path class="st1" d="M160.8,178.2l6.1,18.2-15.5-11.5h18.9l-15.5,11.5,6.1-18.2Z"/>
  <path class="st1" d="M202,178.2l6.1,18.2-15.5-11.5h18.9l-15.5,11.5,6.1-18.2Z"/>
  <path class="st1" d="M243.2,178.2l6.1,18.2-15.5-11.5h18.9l-15.5,11.5,6.1-18.2Z"/>
  <path class="st1" d="M283.7,178.2l6.1,18.2-15.5-11.5h18.9l-15.5,11.5,6.1-18.2Z"/>
  <path class="st1" d="M324.8,178.2l6.1,18.2-15.5-11.5h18.9l-15.5,11.5,6.1-18.2Z"/>
  <path class="st1" d="M139.9,195.1l6.1,18.2-15.5-11.5h18.9l-15.5,11.5,6.1-18.2Z"/>
  <path class="st1" d="M181.1,195.1l6.1,18.2-15.5-11.5h18.9l-15.5,11.5,6.1-18.2Z"/>
  <path class="st1" d="M222.2,195.1l6.1,18.2-15.5-11.5h18.9l-15.5,11.5,6.1-18.2Z"/>
  <path class="st1" d="M263.4,195.1l6.1,18.2-15.5-11.5h18.9l-15.5,11.5,6.1-18.2Z"/>
  <path class="st1" d="M304.6,195.1l6.1,18.2-15.5-11.5h18.9l-15.5,11.5,6.1-18.2Z"/>
  <path class="st1" d="M345.1,195.1l6.1,18.2-15.5-11.5h18.9l-15.5,11.5,6.1-18.2Z"/>
  <path class="st1" d="M160.8,212.6l6.1,18.2-15.5-11.5h18.9l-15.5,11.5,6.1-18.2Z"/>
  <path class="st1" d="M202,212.6l6.1,18.2-15.5-11.5h18.9l-15.5,11.5,6.1-18.2Z"/>
  <path class="st1" d="M243.2,212.6l6.1,18.2-15.5-11.5h18.9l-15.5,11.5,6.1-18.2Z"/>
  <path class="st1" d="M283.7,212.6l6.1,18.2-15.5-11.5h18.9l-15.5,11.5,6.1-18.2Z"/>
  <path class="st1" d="M324.8,212.6l6.1,18.2-15.5-11.5h18.9l-15.5,11.5,6.1-18.2Z"/>
  <path class="st1" d="M139.9,230.2l6.1,18.2-15.5-11.5h18.9l-15.5,11.5,6.1-18.2Z"/>
  <path class="st1" d="M181.1,230.2l6.1,18.2-15.5-11.5h18.9l-15.5,11.5,6.1-18.2Z"/>
  <path class="st1" d="M222.2,230.2l6.1,18.2-15.5-11.5h18.9l-15.5,11.5,6.1-18.2Z"/>
  <path class="st1" d="M263.4,230.2l6.1,18.2-15.5-11.5h18.9l-15.5,11.5,6.1-18.2Z"/>
  <path class="st1" d="M304.6,230.2l6.1,18.2-15.5-11.5h18.9l-15.5,11.5,6.1-18.2Z"/>
  <path class="st1" d="M345.1,230.2l6.1,18.2-15.5-11.5h18.9l-15.5,11.5,6.1-18.2Z"/>
  <path class="st1" d="M335.6,230.2" marker-mid="url(#us-a)"/>
</svg>