<?xml version="1.0" encoding="UTF-8"?>
<svg id="Layer_1" data-name="Layer 1" xmlns="http://www.w3.org/2000/svg" viewBox="0 0 936 936">
  <path d="M468,0C210,0,0,210,0,468s210,468,468,468,468-210,468-468S726,0,468,0ZM468,900c-238.22,0-432-193.78-432-432S229.78,36,468,36s432,193.78,432,432-193.78,432-432,432Z"/>
  <path d="M570.71,409.31c24.375,24.375,59.625,34.078,93,25.781,43.547-10.922,74.156-50.062,74.156-95.062v-31.312c0-22.312-24.844-35.625-43.453-23.297l-120.24,80.156c-14.625,9.703-16.688,30.469-4.219,42.938l.703.703.053.093Z"/>
  <path d="M272.16,435.14c33.375,8.391,68.766-1.453,93-25.781l.703-.703c12.469-12.469,10.453-33.234-4.219-42.938l-120.24-80.156c-18.609-12.375-43.453.938-43.453,23.297v31.312c0,45,30.609,84.141,74.156,95.062l.053-.093Z"/>
  <path d="M762.14,566.06c-25.688-51.375-86.156-76.453-140.63-58.219l-128.29,42.703c-8.156,2.766-16.781,4.078-25.312,4.078s-17.156-1.312-25.312-4.078l-128.29-42.703c-54.469-18.141-114.94,6.844-140.63,58.219-16.219,32.531-16.219,71.391,0,103.92l5.625,11.297c20.062,39.938,60.141,64.219,103.55,64.219,6.469,0,12.938-.469,19.453-1.547l152.39-25.453c4.312-.703,8.766-1.078,13.219-1.078s8.766.375,13.219,1.078l152.39,25.453c6.469,1.078,12.938,1.547,19.453,1.547,43.453,0,83.531-24.234,103.55-64.219l5.625-11.297c16.219-32.531,16.219-71.391,0-103.92h-.01ZM692.859,600.841c-9.234,14.859-26.156,26.391-50.859,26.391,0,0,35.859,4.219,45.703,30.703,9.938,26.859-14.391,53.766-42.844,51-1.781-.141-3.609-.375-5.391-.703l-152.39-25.453c-6.375-1.078-12.703-1.547-19.078-1.547s-12.703.469-19.078,1.547l-152.39,25.453c-1.781.234-3.609.469-5.391.703-28.547,2.766-52.781-24.234-42.844-51,9.844-26.531,45.703-30.703,45.703-30.703-24.703,0-41.625-11.531-50.859-26.391-16.547-26.766,3.141-62.766,34.453-63h.375c8.391,0,16.781,1.312,25.078,4.078l128.29,42.703c11.859,3.938,24.375,6,36.703,6s24.844-2.062,36.703-6l128.29-42.703c8.297-2.766,16.688-4.078,25.078-4.078h.375c31.453.141,51,36.234,34.453,63h-.081Z"/>
  <path d="M701.313,225.84c-24.813,0-44.944,5.944-58.187,17.185v.01c-9.198,6.981-14.865,17.637-15.501,29.167,0,6.046,2.207,8.623,2.946,8.623s6.888,0,17.708-18.602l.421-.688.524-.626c17.185-18.294,34.267-19.135,52.561-20.028,3.367,0,6.837-.318,10.512-.626h.893c3.47,0,5.256-3.367,5.626-5.256v-.01c.965-2.72.79-5.708-.472-8.305-5.995-.575-11.672-.842-17.031-.842v-.002Z"/>
  <path d="M566.81,163.3c-1.376-.175-2.731.431-3.521,1.571-1.704,3.244-1.992,7.053-.79,10.512,17.821,26.28,10.933,50.353.524,72.323-1.263,13.14,1.786,16.661,2.156,17.031.37.37.267,0,.524,0,3.316,0,12.77-6.252,19.608-20.655,4.835-10.091,17.606-45.57-16.98-81.202l-1.519.419Z"/>
  <path d="M666.676,179.068h1.735c5.02,1.139,10.142,1.755,15.296,1.838,13.561,0,21.342-4.784,24.176-9.249.524-.893,1.735-3.152.688-4.886s-4.096-3.1-10.142-3.1h-.01c-3.788.103-7.556.606-11.241,1.519h-1.057c-1.745.185-3.501.267-5.256.267-26.65,0-41.105-19.762-52.561-35.634l-4.312-5.831.01-.01c-.524-.729-1.365-1.16-2.269-1.16-4.835.842-6.252,2.525-5.882,6.837,1.263,18.345,33.426,49.092,50.826,49.409h0Z"/>
</svg>