<?xml version="1.0" encoding="UTF-8"?>
<svg id="Layer_1" data-name="Layer 1" xmlns="http://www.w3.org/2000/svg" viewBox="0 0 948.854 1073.551">
  <defs>
    <style>
      .cls-1 {
        fill-rule: evenodd;
      }
    </style>
  </defs>
  <path class="cls-1" d="M766.02,411.401h.047-.047ZM382.49,583.241c-4.781,4.031-18.516,22.359-28.641,35.859-17.953,23.953-38.344,51.141-52.641,62.391-11.344,8.953-22.359,17.531-33.047,25.875-116.91,91.219-194.16,151.55-243.94,300.47-3.516,10.453,5.578,26.109,20.672,35.578,5.062,3.188,22.5,12.656,34.359,1.078,42.844-41.719,80.484-70.547,113.72-96,69.422-53.203,129.37-99.141,208.5-240,41.953-74.672,225.28-209.29,323.76-281.63,12.703-9.328,23.953-17.531,33.094-24.375l166.97-166.97c-1.031-4.219-7.172-15.375-22.5-30.281-14.297-13.875-26.109-20.719-30.984-22.125l-167.02,167.02c-.094.141-.234.234-.328.328l-10.078,9.375c-72.469,67.312-207.05,192.42-311.86,223.4l-.036.007ZM65.15,1073.551c-10.5,0-21.75-3.422-32.719-10.312-21.141-13.266-38.391-39.094-30.469-62.859,52.031-155.63,131.48-217.64,251.76-311.53,10.641-8.344,21.656-16.875,32.953-25.828,11.859-9.328,32.109-36.375,48.375-58.031,24.797-33.094,31.922-41.719,39.562-43.922,99.656-28.781,237.47-156.89,303.74-218.48l9.938-9.234,168.89-168.89c17.156-17.156,50.391,12.375,63.844,25.828,9.562,9.563,17.438,19.5,22.125,27.984,9.562,17.203,5.344,27.094.094,32.297l-169.03,169.03c-.422.422-.844.797-1.266,1.125-9.328,6.938-20.812,15.375-33.938,24.984-90.141,66.188-277.74,203.95-317.21,274.18-81.469,145.08-143.21,192.37-214.64,247.13-34.312,26.25-69.75,53.438-111.61,94.172-8.391,8.156-18.984,12.234-30.469,12.234l.07.122Z"/>
  <path class="cls-1" d="M452.94,550.101c-3,0-6-1.125-8.297-3.422l-137.58-137.53c-2.203-2.203-3.422-5.156-3.422-8.297,0-3.094,1.219-6.094,3.422-8.297L696.173,3.445c4.594-4.594,12-4.594,16.594,0l161.11,161.06c4.594,4.594,4.594,12,0,16.594-4.594,4.547-12,4.547-16.594,0L704.473,28.289l-372.52,372.52,129.28,129.28c4.594,4.594,4.594,12,0,16.594-2.297,2.297-5.297,3.422-8.297,3.422l.004-.004Z"/>
  <path class="cls-1" d="M734.24,182.931c-3,0-6-1.125-8.297-3.422l-94.641-94.641c-4.594-4.594-4.594-12,0-16.594,4.594-4.547,12-4.547,16.594,0l94.641,94.641c4.594,4.594,4.594,12,0,16.594-2.297,2.297-5.297,3.422-8.297,3.422h0ZM669.412,247.759c-3,0-6-1.125-8.297-3.422l-94.641-94.641c-4.594-4.547-4.594-12,0-16.594,4.594-4.547,12-4.547,16.594,0l94.641,94.641c4.594,4.594,4.594,12,0,16.594-2.297,2.297-5.297,3.422-8.297,3.422h0ZM604.584,312.587c-3,0-6-1.125-8.297-3.422l-94.641-94.641c-4.594-4.547-4.594-12,0-16.594,4.594-4.547,12-4.547,16.594,0l94.641,94.641c4.594,4.547,4.594,12,0,16.547-2.297,2.297-5.297,3.422-8.297,3.422v.047ZM539.756,377.415c-3,0-6-1.125-8.297-3.422l-94.641-94.641c-4.594-4.547-4.594-12,0-16.547,4.594-4.594,12-4.594,16.594,0l94.641,94.641c4.594,4.547,4.594,12,0,16.594-2.297,2.25-5.297,3.422-8.297,3.422v-.047ZM474.928,442.243c-3,0-6-1.125-8.297-3.422l-94.641-94.641c-4.594-4.594-4.594-12,0-16.594s12-4.594,16.594,0l94.641,94.641c4.594,4.547,4.594,12,0,16.594-2.297,2.297-5.297,3.422-8.297,3.422h0Z"/>
</svg>