<?xml version="1.0" encoding="UTF-8"?>
<svg id="Layer_1" data-name="Layer 1" xmlns="http://www.w3.org/2000/svg" viewBox="0 0 975.001 1199.996">
  <path d="M956.25,449.991h-393.75v-84.375h253.82c4.973,0,9.742-1.977,13.258-5.492,3.516-3.52,5.492-8.285,5.492-13.258v-168.76c0-4.973-1.977-9.742-5.492-13.258s-8.285-5.492-13.258-5.492h-328.82v-75.348c4.766,2.945,10.602,3.602,15.898,1.781,5.297-1.82,9.5-5.922,11.449-11.176,1.945-5.254,1.434-11.102-1.398-15.938l-28.461-49.301c-2.207-3.816-5.684-6.738-9.824-8.246-4.144-1.504-8.684-1.504-12.828,0-4.141,1.508-7.617,4.43-9.824,8.246l-28.461,49.301c-2.816,4.836-3.316,10.676-1.367,15.918,1.949,5.242,6.148,9.336,11.438,11.152,5.289,1.82,11.117,1.172,15.879-1.766v75.375h-206.25c-4.973,0-9.742,1.977-13.258,5.492-3.516,3.516-5.492,8.285-5.492,13.258v196.89c0,4.973,1.977,9.738,5.492,13.258,3.516,3.516,8.285,5.492,13.258,5.492h225c4.973,0,9.742-1.977,13.258-5.492,3.516-3.52,5.492-8.285,5.492-13.258v-178.14h310.07v131.26h-253.82c-4.973-.004-9.742,1.973-13.258,5.488-3.519,3.516-5.492,8.285-5.492,13.262v103.12H18.75c-4.973,0-9.742,1.973-13.258,5.492-3.516,3.516-5.492,8.285-5.492,13.258v243.75c0,4.973,1.977,9.738,5.492,13.258,3.516,3.516,8.285,5.492,13.258,5.492h281.25v93.75H112.5c-4.973,0-9.742,1.973-13.258,5.492-3.516,3.516-5.492,8.285-5.492,13.258v215.63c0,4.973,1.977,9.742,5.492,13.258,3.516,3.516,8.285,5.492,13.258,5.492h206.25c4.973,0,9.742-1.977,13.258-5.492,3.516-3.516,5.492-8.285,5.492-13.258v-196.88h112.5v318.76c0,4.973,1.977,9.742,5.492,13.258,3.516,3.516,8.285,5.492,13.258,5.492h346.88c4.973,0,9.742-1.977,13.258-5.492,3.516-3.516,5.492-8.285,5.492-13.258v-168.75c0-4.973-1.977-9.742-5.492-13.258-3.516-3.516-8.285-5.492-13.258-5.492h-162.66c-5.945-16.816-19.516-29.816-36.57-35.035-17.055-5.223-35.574-2.043-49.914,8.562-14.34,10.605-22.801,27.387-22.801,45.223s8.461,34.617,22.801,45.223c14.34,10.605,32.859,13.785,49.914,8.562,17.055-5.219,30.625-18.219,36.57-35.035h143.91v131.25h-309.38v-318.76c0-4.973-1.977-9.742-5.492-13.258-3.516-3.519-8.285-5.492-13.258-5.492h-131.25v-93.75h206.25c4.973,0,9.742-1.977,13.258-5.492,3.516-3.519,5.492-8.285,5.492-13.258v-131.25h243.75v75h-187.5c-4.973,0-9.742,1.973-13.258,5.492-3.516,3.516-5.492,8.285-5.492,13.258v225.01c0,4.973,1.977,9.742,5.492,13.258,3.516,3.516,8.285,5.492,13.258,5.492h206.25c4.973,0,9.742-1.977,13.258-5.492,3.516-3.516,5.492-8.285,5.492-13.258v-206.26h112.5c4.973,0,9.742-1.977,13.258-5.492,3.516-3.519,5.492-8.285,5.492-13.258v-206.25c0-4.973-1.977-9.742-5.492-13.258-3.516-3.52-8.285-5.492-13.258-5.492v.005ZM450,356.241h-187.5v-159.39h187.5v159.39ZM300,1040.621h-168.75v-178.13h168.75v178.13ZM600,1031.246c-4.973,0-9.742-1.977-13.258-5.492-3.516-3.516-5.492-8.285-5.492-13.258s1.977-9.742,5.492-13.258c3.516-3.516,8.285-5.492,13.258-5.492s9.742,1.977,13.258,5.492c3.516,3.516,5.492,8.285,5.492,13.258-.004,4.973-1.984,9.738-5.5,13.25-3.512,3.516-8.277,5.496-13.25,5.5h0ZM525,693.736h-187.5v-112.5h187.5v112.5ZM525,543.736h-206.25c-4.973,0-9.742,1.973-13.258,5.492-3.516,3.516-5.492,8.285-5.492,13.258v131.25H37.5v-206.25h487.5v56.25ZM806.25,881.236h-168.75v-187.5h168.75v187.5ZM937.5,656.236h-93.75v-93.75c0-4.973-1.977-9.742-5.492-13.258-3.516-3.519-8.285-5.492-13.258-5.492h-262.5v-56.25h375v168.75Z"/>
</svg>