<?xml version="1.0" encoding="UTF-8"?>
<svg id="Layer_1" data-name="Layer 1" xmlns="http://www.w3.org/2000/svg" viewBox="0 0 1187.553 1175.443">
  <defs>
    <style>
      .cls-1 {
        fill-rule: evenodd;
      }
    </style>
  </defs>
  <path class="cls-1" d="M1094.579,477.629c9.512,39.961,14.551,81.648,14.551,124.5,0,295.73-240.09,535.81-535.81,535.81S37.51,897.849,37.51,602.129,277.6,66.319,573.32,66.319c166.27,0,314.96,75.914,413.27,194.93,6.602,7.977,18.426,9.102,26.398,2.512,7.977-6.586,9.102-18.414,2.512-26.398C910.31,110.023,751.23,28.823,573.31,28.823,256.9,28.823,0,285.713,0,602.133s256.9,573.31,573.31,573.31,573.31-256.89,573.31-573.31c0-45.852-5.387-90.438-15.574-133.19-2.398-10.074-12.523-16.301-22.586-13.898-10.062,2.398-16.289,12.523-13.887,22.586l.006-.002Z"/>
  <path class="cls-1" d="M449.919,454.529c-43,0-80.961,44.574-80.961,102.36s37.961,102.35,80.961,102.35,80.961-44.562,80.961-102.35-37.961-102.36-80.961-102.36ZM449.919,492.029c8.863,0,16.926,4.199,23.574,10.75,12.336,12.164,19.887,31.977,19.887,54.113s-7.551,41.938-19.887,54.113c-6.648,6.551-14.711,10.738-23.574,10.738s-16.926-4.188-23.574-10.738c-12.336-12.176-19.887-31.988-19.887-54.113s7.551-41.949,19.887-54.113c6.648-6.551,14.711-10.75,23.574-10.75Z"/>
  <path class="cls-1" d="M696.769,454.529c-42.988,0-80.961,44.574-80.961,102.36s37.977,102.35,80.961,102.35,80.961-44.562,80.961-102.35-37.961-102.36-80.961-102.36ZM696.769,492.029c8.875,0,16.926,4.199,23.574,10.75,12.352,12.164,19.887,31.977,19.887,54.113s-7.539,41.938-19.887,54.113c-6.648,6.551-14.699,10.738-23.574,10.738s-16.914-4.188-23.562-10.738c-12.352-12.176-19.898-31.988-19.898-54.113s7.551-41.949,19.898-54.113c6.648-6.551,14.699-10.75,23.562-10.75Z"/>
  <path class="cls-1" d="M302.619,439.809c22.789-38.727,52.438-49.398,82.812-51.977,23.414-1.988,47.211.25,69.289-.227,26.637-.586,50.988-5.148,70.938-20.414,13.574-10.387,25.375-25.75,34-49.023,3.586-9.711-1.363-20.5-11.074-24.102-9.699-3.602-20.5,1.363-24.086,11.062-18.562,50.086-57.664,45.664-98.562,44.688-55.137-1.312-113.79-.176-155.64,70.977-5.25,8.914-2.262,20.414,6.648,25.664,8.926,5.25,20.426,2.273,25.676-6.648h-.001Z"/>
  <path class="cls-1" d="M661.929,325.119c23.312-22.562,44.074-34.398,63.836-36.949,21.898-2.824,41.762,6.262,61.363,21.5,22.898,17.801,45.051,43.836,68.125,72.949,6.426,8.113,18.238,9.477,26.336,3.051,8.113-6.426,9.488-18.227,3.051-26.336-25.137-31.738-49.539-59.863-74.5-79.273-28.262-21.977-57.574-33.164-89.176-29.074-26.086,3.363-54.352,17.426-85.113,47.188-7.438,7.199-7.625,19.086-.438,26.523,7.199,7.426,19.074,7.625,26.512.426l.004-.005Z"/>
  <path class="cls-1" d="M464.209,918.989c76.312-89.852,164.24-146.38,272.86-144.69,10.336.164,18.875-8.113,19.039-18.461.164-10.336-8.113-18.875-18.461-19.039-119.86-1.863-217.8,58.762-302.01,157.91-6.699,7.887-5.738,19.727,2.148,26.426,7.887,6.699,19.727,5.738,26.426-2.148l-.002.002Z"/>
  <path class="cls-1" d="M1094.979,418.479v-17.562c0-10.352-8.398-18.75-18.75-18.75s-18.75,8.398-18.75,18.75v17.562c0,10.352,8.398,18.75,18.75,18.75s18.75-8.398,18.75-18.75ZM1094.979,338.081v-86.762c.012-16.352,9.551-31.176,24.398-37.949,40.176-16.477,68.176-56.012,68.176-102.06,0-61.438-49.875-111.31-111.32-111.31s-111.31,49.875-111.31,111.31c0,10.352,8.398,18.75,18.75,18.75s18.75-8.398,18.75-18.75c0-40.738,33.074-73.812,73.812-73.812s73.824,33.074,73.824,73.812c0,30.398-18.426,56.551-44.926,67.363-.176.074-.352.137-.512.211-28.648,12.699-47.125,41.086-47.137,72.426v86.773c0,10.336,8.398,18.75,18.75,18.75s18.75-8.414,18.75-18.75l-.005-.002Z"/>
</svg>