<?xml version="1.0" encoding="UTF-8"?>
<svg id="Layer_1" xmlns="http://www.w3.org/2000/svg" version="1.1" viewBox="0 0 1141.1 1108.8">
  <!-- Generator: Adobe Illustrator 29.2.1, SVG Export Plug-In . SVG Version: 2.1.0 Build 116)  -->
  <path d="M556.7,642l-132,67.2s-140.4-94.8-154.8-104.4c-14.4-9.6-31.2-19.2-42-22.8-45.6-15.6-165.6-26.4-199.2,51.6C-6.1,716.4,0,931.2,1.1,1084.8c0,13.2,8.4,24,21.6,24h253.2c15.6,0,20.4-8.4,22.8-20.4,1.2-8.4,15.6-181.2,14.4-258v-26.4l67.2,45.6c12,8.4,25.2,12,39.6,12s21.6-2.4,32.4-7.2l168-86.4c34.8-18,48-60,31.2-94.8-18-34.8-60-49.2-94.8-31.2h0Z"/>
  <path d="M328.7,381.6c0,84.8-68.8,153.6-153.6,153.6S21.5,466.4,21.5,381.6s68.8-153.6,153.6-153.6,153.6,68.8,153.6,153.6h0Z"/>
  <path d="M1091.9,0h-574.8c-26.4,0-48,21.6-48,48v340.8c-9.6,28.8-25.2,73.2-45.6,116.4-9.6,19.2,9.6,40.8,30,33.6,70.8-21.6,129.6-54,159.6-73.2h480c26.4,0,48-21.6,48-48V48C1139.9,21.6,1118.3,0,1091.9,0h0ZM760.7,423.6h-24v-97.2l-144,97.2h-50.4l181.2-122.4h-39.6l-171.6,116.4v-34.8l121.2-81.6h-121.2s0-24,0-24h248.4v146.4ZM760.7,189.6h-248.4v-24h121.2l-121.2-81.6v-33.6l171.6,115.2h39.6l-181.2-121.2h50.4l144,97.2V44.4h24v145.2ZM1096.7,301.2h-121.2l121.2,81.6v34.8l-171.6-116.4h-39.6l181.2,122.4h-50.4l-144-97.2v97.2h-24v-146.4h248.4v24ZM1096.7,84l-121.2,81.6h121.2v24h-248.4V44.4h24v97.2l144-97.2h50.4l-181.2,121.2h39.6l171.6-115.2v33.6Z"/>
</svg>