<?xml version="1.0" encoding="UTF-8"?>
<svg id="Layer_1" data-name="Layer 1" xmlns="http://www.w3.org/2000/svg" viewBox="0 0 768.074 960.01">
  <path d="M672.034,935.995h-81.48v-389.64c0-10.98,4.934-21.469,13.734-28.961,144.21-124.71,148.38-408.3,148.38-440.23,0-42.547-35.098-77.164-78.234-77.164s-78,34.617-78,77.164c0,82.957-24.68,272.5-100.98,328.88-36.945,27.328-86.309,50.164-137.89,73.078l-9.859,4.445c-34.406,15.367-73.406,32.785-109.02,52.953-59.387,33.586-138.33,90.008-138.33,191.77v207.72H12c-6.629,0-12,5.371-12,12s5.371,12,12,12h660.04c6.629,0,12-5.371,12-12s-5.371-12-12-12l-.006-.015ZM566.554,546.355v389.64h-310.01v-159.78c0-6.629-5.371-12-12-12s-12,5.371-12,12v159.78h-108.19v-207.72c0-68.836,38.906-121.53,126.15-170.88,34.621-19.609,73.066-36.777,106.96-51.922l9.836-4.434c52.859-23.48,103.52-46.941,142.42-75.715,90.828-67.109,110.71-274.08,110.71-348.17,0-29.316,24.223-53.164,54-53.164s54.234,23.848,54.234,53.164c0,30.801-3.93,304.34-140.13,422.13-13.969,11.879-21.984,29.027-21.984,47.07h.004Z"/>
  <path d="M756.074,935.995h-36.035c-6.629,0-12,5.371-12,12s5.371,12,12,12h36.035c6.629,0,12-5.371,12-12s-5.371-12-12-12Z"/>
  <path d="M345.984,402.895c78.059,0,144-87.926,144-192,0-79.398-64.602-144-144-144s-144,64.602-144,144c0,104.07,65.941,192,144,192ZM345.984,90.895c66.172,0,120,53.828,120,120,0,91.066-54.953,168-120,168s-120-76.934-120-168c0-66.168,53.832-120,120-120Z"/>
</svg>