<?xml version="1.0" encoding="UTF-8"?>
<svg id="Layer_1" xmlns="http://www.w3.org/2000/svg" version="1.1" viewBox="0 0 840.8 1176.1">
  <!-- Generator: Adobe Illustrator 29.2.1, SVG Export Plug-In . SVG Version: 2.1.0 Build 116)  -->
  <path d="M27.6,0h785.6c15.2,0,27.6,12.3,27.6,27.6v1120.9c0,15.2-12.3,27.6-27.6,27.6s-11-1.7-15.4-4.7l-377.4-213.4-379.2,214.5c-13.2,7.5-30,2.9-37.5-10.3-2.4-4.3-3.6-9-3.6-13.6h0V27.6C0,12.3,12.3,0,27.6,0h0ZM446.6,267.7l63.6,196.8,207.1-.4c15.1,0,27.5,12.3,27.5,27.5s-4.5,17.2-11.3,22.3h0s-167.7,121.4-167.7,121.4l64.4,196.8c4.7,14.4-3.2,30-17.7,34.7-9.4,3-19.3.8-26.3-5.2l-165.6-120.8-167.3,122.1c-12.2,8.9-29.4,6.2-38.3-6-5.4-7.4-6.5-16.5-3.9-24.6h0l64.4-196.8-167.7-121.4c-12.3-8.9-15-26.2-6.1-38.4,5.8-8,15.1-12,24.3-11.3l205.1.4,63.6-197c4.6-14.4,20.1-22.4,34.5-17.8,8.8,2.9,15.2,9.7,17.8,17.9v-.2ZM464,500.4l-43.6-135-43.6,135c-3.6,11.1-13.9,19.1-26.2,19.1l-141.9-.2,115,83.2c9.4,6.8,13.8,19.2,10,30.8l-44.2,135,114.3-83.4c9.4-7.1,22.7-7.6,32.7-.3l114.8,83.7-43.8-134c-4.1-11.2-.5-24.4,9.7-31.8l115-83.2-140.7.2c-12.1.6-23.6-7-27.4-19.1h0ZM785.6,55.2H55.2v1046.2l351.4-198.7c8.2-4.7,18.6-5.2,27.4-.1l351.7,198.8V55.2Z"/>
</svg>