<?xml version="1.0" encoding="UTF-8"?>
<svg id="Layer_1" data-name="Layer 1" xmlns="http://www.w3.org/2000/svg" viewBox="0 0 1141.74 1141.797">
  <defs>
    <style>
      .cls-1 {
        fill-rule: evenodd;
      }
    </style>
  </defs>
  <path class="cls-1" d="M270.697,408.279c-11.016,0-11.016,16.734,0,16.734s10.969-16.734,0-16.734ZM570.837,487.31c107.3,0,194.26,86.953,194.26,194.26,0,61.078-28.219,116.11-73.312,152.02,117.66,48.562,196.18,163.64,196.18,293.16,0,8.297-6.75,15.047-15.047,15.047H268.788c-8.297,0-15.047-6.75-15.047-15.047,0-129.52,78.516-244.6,196.18-293.16-90.703-72.234-98.531-207.28-16.406-289.36,35.156-35.156,83.719-56.906,137.34-56.906l-.018-.014ZM660.462,853.92c-55.969,29.156-123.24,29.156-179.21,0-111.84,36.703-190.87,138.84-196.97,257.72h573.19c-6.188-118.88-85.219-221.02-197.02-257.72h.01ZM686.9,565.5c-64.125-64.125-168.05-64.125-232.13,0-64.078,64.125-64.125,168.05,0,232.13,64.125,64.078,168.05,64.125,232.13,0,64.125-64.125,64.125-168.05,0-232.13ZM570.84,0C684.7,0,777.05,92.297,777.05,206.21c0,98.859-70.219,183.24-165.89,202.22l-16.828,52.734c-7.312,22.922-39.703,22.922-47.016,0l-16.828-52.734c-95.625-18.984-165.89-103.36-165.89-202.22.047-113.86,92.391-206.21,206.26-206.21h-.018ZM695.34,81.703c-68.766-68.766-180.28-68.766-249.05,0-65.109,65.109-69.094,169.45-9.141,239.26,26.812,31.219,64.406,52.922,107.06,59.391,5.672.844,10.312,4.875,12.047,10.359l14.578,45.516,14.156-44.344c1.312-5.859,6.141-10.641,12.422-11.578,85.5-12.891,149.53-86.672,149.53-174.1,0-48.609-19.734-92.625-51.609-124.5l.007-.004ZM935.53,281.993c-56.953,0-108.47,23.109-145.78,60.375-89.203,89.203-77.906,236.29,22.781,311.26l-20.578,63.703c-7.312,22.594,18.984,41.766,38.297,27.375l71.25-53.156c126.56,20.672,240.24-76.266,240.24-203.39,0-113.81-92.344-206.16-206.21-206.16v-.007ZM1060.03,363.696c-68.766-68.766-180.28-68.766-249.05,0-78.891,78.891-65.391,210.1,27.469,271.5,5.578,3.703,8.062,10.734,6,17.109l-18.797,58.312,62.719-46.781c3.328-2.672,7.781-3.891,12.328-3,109.03,21.797,210.94-61.266,210.94-172.64,0-48.609-19.734-92.625-51.609-124.5ZM206.16,312.134c48.609,0,92.672,19.688,124.5,51.562,78.891,78.891,65.391,210.1-27.469,271.5-5.625,3.703-8.062,10.734-6,17.109l18.797,58.312-62.719-46.781c-3.328-2.672-7.781-3.891-12.281-3-108.98,21.797-210.94-61.266-210.94-172.64,0-97.266,78.844-176.06,176.11-176.06l.002-.002ZM60.38,342.415c80.531-80.531,211.08-80.531,291.61,0,89.203,89.203,77.906,236.29-22.781,311.26l20.578,63.703c7.266,22.594-18.984,41.766-38.297,27.375l-71.25-53.156C113.72,712.269,0,615.331,0,488.207c-.047-56.953,23.062-108.47,60.375-145.78l.005-.012ZM626.44,257.759c-7.219,19.172-34.172,28.312-55.594,28.312s-48.422-9.188-55.594-28.312c-2.906-7.781-11.531-11.719-19.266-8.812-7.781,2.906-11.719,11.531-8.812,19.266,11.859,31.734,49.5,47.953,83.719,47.953s71.859-16.219,83.719-47.953c2.906-7.781-1.078-16.406-8.812-19.266-7.828-2.859-16.453,1.078-19.359,8.812ZM635.393,96.179c-21.234,0-38.484,17.25-38.484,38.484,0,34.172,41.484,51.375,65.672,27.188s6.938-65.672-27.188-65.672ZM641.299,128.71c-7.781-7.781-19.594,4.031-11.812,11.812,7.781,7.828,19.594-3.984,11.812-11.812ZM506.299,96.179c-21.234,0-38.484,17.25-38.484,38.484,0,34.172,41.484,51.375,65.672,27.188,24.234-24.188,6.984-65.672-27.188-65.672ZM512.253,128.71c-7.781-7.781-19.594,4.031-11.812,11.812,7.734,7.828,19.594-3.984,11.812-11.812ZM122.443,550.26c11.906,31.781,49.453,47.953,83.719,47.953s71.859-16.219,83.719-47.953c2.906-7.781-1.078-16.406-8.812-19.266-7.781-2.906-16.406,1.078-19.266,8.812-7.172,19.172-34.172,28.312-55.594,28.312s-48.422-9.188-55.594-28.312c-2.906-7.781-11.531-11.719-19.266-8.812-7.828,2.859-11.766,11.484-8.906,19.266h0ZM991.133,539.76c-7.219,19.172-34.172,28.312-55.594,28.312s-48.422-9.188-55.594-28.312c-2.906-7.781-11.531-11.719-19.266-8.812-7.781,2.906-11.719,11.531-8.812,19.266,11.859,31.734,49.5,47.953,83.719,47.953s71.859-16.219,83.719-47.953c2.906-7.781-1.078-16.406-8.812-19.266-7.828-2.859-16.453,1.078-19.359,8.812h0ZM1000.086,378.18c34.172,0,51.375,41.484,27.188,65.672s-65.672,6.938-65.672-27.188c0-21.234,17.203-38.484,38.484-38.484ZM1005.992,410.711c7.781,7.781-4.031,19.594-11.812,11.812-7.828-7.734,4.031-19.594,11.812-11.812ZM870.992,378.18c34.172,0,51.375,41.484,27.188,65.672s-65.672,6.938-65.672-27.188c.047-21.234,17.25-38.484,38.484-38.484ZM876.945,410.711c7.781,7.781-4.031,19.594-11.812,11.812-7.828-7.734,3.984-19.594,11.812-11.812ZM141.625,408.273c-11.016,0-11.016,16.734,0,16.734s11.016-16.734,0-16.734ZM114.437,389.429c-15.047,15.047-15.047,39.375,0,54.375,24.188,24.188,65.672,6.938,65.672-27.188s-41.484-51.328-65.672-27.188h0ZM243.487,389.429c24.188-24.188,65.672-6.938,65.672,27.188s-41.484,51.375-65.672,27.188c-15-15-15-39.328,0-54.375h0Z"/>
</svg>