<?xml version="1.0" encoding="UTF-8"?>
<svg id="Layer_1" data-name="Layer 1" xmlns="http://www.w3.org/2000/svg" viewBox="0 0 1726.613 1838.202">
  <defs>
    <style>
      .cls-1 {
        fill: none;
        stroke: #ff6f2e;
        stroke-linecap: round;
        stroke-linejoin: round;
        stroke-width: 22px;
      }
    </style>
  </defs>
  <path d="M554.014,261.307c-4.313-74.559-52.991-130.012-117.688-135.566-49.294-4.313-94.277,11.707-123.853,25.879-4.929,2.465-9.859,4.313-15.405,5.546,0-11.091-1.849-21.566-3.697-32.658,6.162.616,12.94.616,20.95.616,23.415,0,54.224-3.081,85.647-16.636,47.446-20.334,52.375-83.182,52.991-86.271.616-7.394-4.313-13.556-11.091-15.405-2.465-.616-65.929-15.405-110.905.616-28.96,10.475-46.829,40.668-56.688,64.699-11.091-20.95-25.879-41.284-44.981-59.77-5.546-5.546-14.788-5.546-20.95,0-5.546,5.546-5.546,14.788,0,20.95,37.587,37.587,58.537,81.953,59.153,125.707-8.626-1.232-17.253-3.697-25.879-7.394-28.96-13.556-74.559-29.577-123.853-25.264C53.681,131.286,5.004,187.358.686,261.298c-5.546,88.73,22.182,213.812,95.506,292.065,27.112,28.344,50.527,50.527,92.43,54.224,2.465,0,4.929.616,8.011.616,22.182,0,48.678-6.778,65.929-17.869,9.242-5.546,20.95-5.546,30.193,0,19.101,11.707,50.527,19.101,73.941,17.253,41.9-3.697,65.315-25.879,92.43-54.224,73.323-78.253,100.435-202.724,94.888-292.065v.009ZM340.82,35.782c25.879-9.242,61.618-4.929,80.718-1.849-3.081,15.405-11.707,39.435-32.658,48.678-35.738,15.405-72.094,15.405-92.43,13.556,7.394-22.182,22.799-52.991,44.365-60.385h.005ZM437.561,533.654c-24.031,25.264-41.9,42.517-73.941,44.981-16.636,1.849-41.9-4.313-56.072-12.94-18.485-11.707-42.517-11.707-61.001,0-13.556,8.626-38.819,14.788-55.456,12.94-31.425-3.081-49.911-19.718-73.941-44.981-58.537-62.85-93.659-171.301-87.5-270.5,3.081-50.527,32.041-103.518,91.188-107.829,4.313-.616,9.242-.616,13.556-.616,37.587,0,72.094,12.324,96.13,23.415,30.193,14.172,64.699,14.172,95.506,0,25.879-12.324,65.929-26.495,109.065-22.799,58.537,4.929,88.112,57.305,91.188,107.829,4.929,99.206-30.193,207.653-88.73,270.5h.009Z"/>
  <path d="M554.552,876.307c-4.313-74.559-52.991-130.012-117.688-135.566-49.294-4.313-94.277,11.707-123.853,25.879-4.929,2.465-9.859,4.313-15.405,5.546,0-11.091-1.849-21.566-3.697-32.658,6.162.616,12.94.616,20.95.616,23.415,0,54.224-3.081,85.647-16.636,47.446-20.334,52.375-83.182,52.991-86.271.616-7.394-4.313-13.556-11.091-15.405-2.465-.616-65.929-15.405-110.905.616-28.96,10.475-46.829,40.668-56.688,64.699-11.091-20.95-25.879-41.284-44.981-59.77-5.546-5.546-14.788-5.546-20.95,0-5.546,5.546-5.546,14.788,0,20.95,37.587,37.587,58.537,81.953,59.153,125.707-8.626-1.232-17.253-3.697-25.879-7.394-28.96-13.556-74.559-29.577-123.853-25.264-64.082,4.929-112.759,61.001-117.077,134.941-5.546,88.73,22.182,213.812,95.506,292.065,27.112,28.344,50.527,50.527,92.43,54.224,2.465,0,4.929.616,8.011.616,22.182,0,48.678-6.778,65.929-17.869,9.242-5.546,20.95-5.546,30.193,0,19.101,11.707,50.527,19.101,73.941,17.253,41.9-3.697,65.315-25.879,92.43-54.224,73.323-78.253,100.435-202.724,94.888-292.065v.009ZM341.358,650.782c25.879-9.242,61.618-4.929,80.718-1.849-3.081,15.405-11.707,39.435-32.658,48.678-35.738,15.405-72.094,15.405-92.43,13.556,7.394-22.182,22.799-52.991,44.365-60.385h.005ZM438.099,1148.654c-24.031,25.264-41.9,42.517-73.941,44.981-16.636,1.849-41.9-4.313-56.072-12.94-18.485-11.707-42.517-11.707-61.001,0-13.556,8.626-38.819,14.788-55.456,12.94-31.425-3.081-49.911-19.718-73.941-44.981-58.537-62.85-93.659-171.301-87.5-270.5,3.081-50.527,32.041-103.518,91.188-107.829,4.313-.616,9.242-.616,13.556-.616,37.587,0,72.094,12.324,96.13,23.415,30.193,14.172,64.699,14.172,95.506,0,25.879-12.324,65.929-26.495,109.065-22.799,58.537,4.929,88.112,57.305,91.188,107.829,4.929,99.206-30.193,207.653-88.73,270.5h.009Z"/>
  <path d="M1130.014,261.307c-4.313-74.559-52.991-130.012-117.688-135.566-49.294-4.313-94.277,11.707-123.853,25.879-4.929,2.465-9.859,4.313-15.405,5.546,0-11.091-1.849-21.566-3.697-32.658,6.162.616,12.94.616,20.95.616,23.415,0,54.224-3.081,85.647-16.636,47.446-20.334,52.375-83.182,52.991-86.271.616-7.394-4.313-13.556-11.091-15.405-2.465-.616-65.929-15.405-110.905.616-28.96,10.475-46.829,40.668-56.688,64.699-11.091-20.95-25.879-41.284-44.981-59.77-5.546-5.546-14.788-5.546-20.95,0-5.546,5.546-5.546,14.788,0,20.95,37.587,37.587,58.537,81.953,59.153,125.707-8.626-1.232-17.253-3.697-25.879-7.394-28.96-13.556-74.559-29.577-123.853-25.264-64.082,4.929-112.759,61.001-117.077,134.941-5.546,88.73,22.182,213.812,95.506,292.065,27.112,28.344,50.527,50.527,92.43,54.224,2.465,0,4.929.616,8.011.616,22.182,0,48.678-6.778,65.929-17.869,9.242-5.546,20.95-5.546,30.193,0,19.101,11.707,50.527,19.101,73.941,17.253,41.9-3.697,65.315-25.879,92.43-54.224,73.323-78.253,100.435-202.724,94.888-292.065v.009ZM916.82,35.782c25.879-9.242,61.618-4.929,80.718-1.849-3.081,15.405-11.707,39.435-32.658,48.678-35.738,15.405-72.094,15.405-92.43,13.556,7.394-22.182,22.799-52.991,44.365-60.385h.005ZM1013.561,533.654c-24.031,25.264-41.9,42.517-73.941,44.981-16.636,1.849-41.9-4.313-56.072-12.94-18.485-11.707-42.517-11.707-61.001,0-13.556,8.626-38.819,14.788-55.456,12.94-31.425-3.081-49.911-19.718-73.941-44.981-58.537-62.85-93.659-171.301-87.5-270.5,3.081-50.527,32.041-103.518,91.188-107.829,4.313-.616,9.242-.616,13.556-.616,37.587,0,72.094,12.324,96.13,23.415,30.193,14.172,64.699,14.172,95.506,0,25.879-12.324,65.929-26.495,109.065-22.799,58.537,4.929,88.112,57.305,91.188,107.829,4.929,99.206-30.193,207.653-88.73,270.5h.009Z"/>
  <path d="M1130.552,876.307c-4.313-74.559-52.991-130.012-117.688-135.566-49.294-4.313-94.277,11.707-123.853,25.879-4.929,2.465-9.859,4.313-15.405,5.546,0-11.091-1.849-21.566-3.697-32.658,6.162.616,12.94.616,20.95.616,23.415,0,54.224-3.081,85.647-16.636,47.446-20.334,52.375-83.182,52.991-86.271.616-7.394-4.313-13.556-11.091-15.405-2.465-.616-65.929-15.405-110.905.616-28.96,10.475-46.829,40.668-56.688,64.699-11.091-20.95-25.879-41.284-44.981-59.77-5.546-5.546-14.788-5.546-20.95,0-5.546,5.546-5.546,14.788,0,20.95,37.587,37.587,58.537,81.953,59.153,125.707-8.626-1.232-17.253-3.697-25.879-7.394-28.96-13.556-74.559-29.577-123.853-25.264-64.082,4.929-112.759,61.001-117.077,134.941-5.546,88.73,22.182,213.812,95.506,292.065,27.112,28.344,50.527,50.527,92.43,54.224,2.465,0,4.929.616,8.011.616,22.182,0,48.678-6.778,65.929-17.869,9.242-5.546,20.95-5.546,30.193,0,19.101,11.707,50.527,19.101,73.941,17.253,41.9-3.697,65.315-25.879,92.43-54.224,73.323-78.253,100.435-202.724,94.888-292.065v.009ZM917.358,650.782c25.879-9.242,61.618-4.929,80.718-1.849-3.081,15.405-11.707,39.435-32.658,48.678-35.738,15.405-72.094,15.405-92.43,13.556,7.394-22.182,22.799-52.991,44.365-60.385h.005ZM1014.099,1148.654c-24.031,25.264-41.9,42.517-73.941,44.981-16.636,1.849-41.9-4.313-56.072-12.94-18.485-11.707-42.517-11.707-61.001,0-13.556,8.626-38.819,14.788-55.456,12.94-31.425-3.081-49.911-19.718-73.941-44.981-58.537-62.85-93.659-171.301-87.5-270.5,3.081-50.527,32.041-103.518,91.188-107.829,4.313-.616,9.242-.616,13.556-.616,37.587,0,72.094,12.324,96.13,23.415,30.193,14.172,64.699,14.172,95.506,0,25.879-12.324,65.929-26.495,109.065-22.799,58.537,4.929,88.112,57.305,91.188,107.829,4.929,99.206-30.193,207.653-88.73,270.5h.009Z"/>
  <path d="M1706.552,261.307c-4.313-74.559-52.991-130.012-117.688-135.566-49.294-4.313-94.277,11.707-123.853,25.879-4.929,2.465-9.859,4.313-15.405,5.546,0-11.091-1.849-21.566-3.697-32.658,6.162.616,12.94.616,20.95.616,23.415,0,54.224-3.081,85.647-16.636,47.446-20.334,52.375-83.182,52.991-86.271.616-7.394-4.313-13.556-11.091-15.405-2.465-.616-65.929-15.405-110.905.616-28.96,10.475-46.829,40.668-56.688,64.699-11.091-20.95-25.879-41.284-44.981-59.77-5.546-5.546-14.788-5.546-20.95,0-5.546,5.546-5.546,14.788,0,20.95,37.587,37.587,58.537,81.953,59.153,125.707-8.626-1.232-17.253-3.697-25.879-7.394-28.96-13.556-74.559-29.577-123.853-25.264-64.082,4.929-112.759,61.001-117.077,134.941-5.546,88.73,22.182,213.812,95.506,292.065,27.112,28.344,50.527,50.527,92.43,54.224,2.465,0,4.929.616,8.011.616,22.182,0,48.678-6.778,65.929-17.869,9.242-5.546,20.95-5.546,30.193,0,19.101,11.707,50.527,19.101,73.941,17.253,41.9-3.697,65.315-25.879,92.43-54.224,73.323-78.253,100.435-202.724,94.888-292.065v.009ZM1493.358,35.782c25.879-9.242,61.618-4.929,80.718-1.849-3.081,15.405-11.707,39.435-32.658,48.678-35.738,15.405-72.094,15.405-92.43,13.556,7.394-22.182,22.799-52.991,44.365-60.385h.005ZM1590.099,533.654c-24.031,25.264-41.9,42.517-73.941,44.981-16.636,1.849-41.9-4.313-56.072-12.94-18.485-11.707-42.517-11.707-61.001,0-13.556,8.626-38.819,14.788-55.456,12.94-31.425-3.081-49.911-19.718-73.941-44.981-58.537-62.85-93.659-171.301-87.5-270.5,3.081-50.527,32.041-103.518,91.188-107.829,4.313-.616,9.242-.616,13.556-.616,37.587,0,72.094,12.324,96.13,23.415,30.193,14.172,64.699,14.172,95.506,0,25.879-12.324,65.929-26.495,109.065-22.799,58.537,4.929,88.112,57.305,91.188,107.829,4.929,99.206-30.193,207.653-88.73,270.5h.009Z"/>
  <path d="M1707.089,876.307c-4.313-74.559-52.991-130.012-117.688-135.566-49.294-4.313-94.277,11.707-123.853,25.879-4.929,2.465-9.859,4.313-15.405,5.546,0-11.091-1.849-21.566-3.697-32.658,6.162.616,12.94.616,20.95.616,23.415,0,54.224-3.081,85.647-16.636,47.446-20.334,52.375-83.182,52.991-86.271.616-7.394-4.313-13.556-11.091-15.405-2.465-.616-65.929-15.405-110.905.616-28.96,10.475-46.829,40.668-56.688,64.699-11.091-20.95-25.879-41.284-44.981-59.77-5.546-5.546-14.788-5.546-20.95,0-5.546,5.546-5.546,14.788,0,20.95,37.587,37.587,58.537,81.953,59.153,125.707-8.626-1.232-17.253-3.697-25.879-7.394-28.96-13.556-74.559-29.577-123.853-25.264-64.082,4.929-112.759,61.001-117.077,134.941-5.546,88.73,22.182,213.812,95.506,292.065,27.112,28.344,50.527,50.527,92.43,54.224,2.465,0,4.929.616,8.011.616,22.182,0,48.678-6.778,65.929-17.869,9.242-5.546,20.95-5.546,30.193,0,19.101,11.707,50.527,19.101,73.941,17.253,41.9-3.697,65.315-25.879,92.43-54.224,73.323-78.253,100.435-202.724,94.888-292.065v.009ZM1493.895,650.782c25.879-9.242,61.618-4.929,80.718-1.849-3.081,15.405-11.707,39.435-32.658,48.678-35.738,15.405-72.094,15.405-92.43,13.556,7.394-22.182,22.799-52.991,44.365-60.385h.005ZM1590.637,1148.654c-24.031,25.264-41.9,42.517-73.941,44.981-16.636,1.849-41.9-4.313-56.072-12.94-18.485-11.707-42.517-11.707-61.001,0-13.556,8.626-38.819,14.788-55.456,12.94-31.425-3.081-49.911-19.718-73.941-44.981-58.537-62.85-93.659-171.301-87.5-270.5,3.081-50.527,32.041-103.518,91.188-107.829,4.313-.616,9.242-.616,13.556-.616,37.587,0,72.094,12.324,96.13,23.415,30.193,14.172,64.699,14.172,95.506,0,25.879-12.324,65.929-26.495,109.065-22.799,58.537,4.929,88.112,57.305,91.188,107.829,4.929,99.206-30.193,207.653-88.73,270.5h.009Z"/>
  <path d="M1725.914,1491.307c-4.313-74.559-52.991-130.012-117.688-135.566-49.294-4.313-94.277,11.707-123.853,25.879-4.929,2.465-9.859,4.313-15.405,5.546,0-11.091-1.849-21.566-3.697-32.658,6.162.616,12.94.616,20.95.616,23.415,0,54.224-3.081,85.647-16.636,47.446-20.334,52.375-83.182,52.991-86.271.616-7.394-4.313-13.556-11.091-15.405-2.465-.616-65.929-15.405-110.905.616-28.96,10.475-46.829,40.668-56.688,64.699-11.091-20.95-25.879-41.284-44.981-59.77-5.546-5.546-14.788-5.546-20.95,0-5.546,5.546-5.546,14.788,0,20.95,37.587,37.587,58.537,81.953,59.153,125.707-8.626-1.232-17.253-3.697-25.879-7.394-28.96-13.556-74.559-29.577-123.853-25.264-64.082,4.929-112.759,61.001-117.077,134.941-5.546,88.73,22.182,213.812,95.506,292.065,27.112,28.344,50.527,50.527,92.43,54.224,2.465,0,4.929.616,8.011.616,22.182,0,48.678-6.778,65.929-17.869,9.242-5.546,20.95-5.546,30.193,0,19.101,11.707,50.527,19.101,73.941,17.253,41.9-3.697,65.315-25.879,92.43-54.224,73.323-78.253,100.435-202.724,94.888-292.065v.009ZM1512.72,1265.782c25.879-9.242,61.618-4.929,80.718-1.849-3.081,15.405-11.707,39.435-32.658,48.678-35.738,15.405-72.094,15.405-92.43,13.556,7.394-22.182,22.799-52.991,44.365-60.385h.005ZM1609.461,1763.654c-24.031,25.264-41.9,42.517-73.941,44.981-16.636,1.849-41.9-4.313-56.072-12.94-18.485-11.707-42.517-11.707-61.001,0-13.556,8.626-38.819,14.788-55.456,12.94-31.425-3.081-49.911-19.718-73.941-44.981-58.537-62.85-93.659-171.301-87.5-270.5,3.081-50.527,32.041-103.518,91.188-107.829,4.313-.616,9.242-.616,13.556-.616,37.587,0,72.094,12.324,96.13,23.415,30.193,14.172,64.699,14.172,95.506,0,25.879-12.324,65.929-26.495,109.065-22.799,58.537,4.929,88.112,57.305,91.188,107.829,4.929,99.206-30.193,207.653-88.73,270.5h.009Z"/>
  <path d="M572.301,1491.307c-4.313-74.559-52.991-130.012-117.688-135.566-49.294-4.313-94.277,11.707-123.853,25.879-4.929,2.465-9.859,4.313-15.405,5.546,0-11.091-1.849-21.566-3.697-32.658,6.162.616,12.94.616,20.95.616,23.415,0,54.224-3.081,85.647-16.636,47.446-20.334,52.375-83.182,52.991-86.271.616-7.394-4.313-13.556-11.091-15.405-2.465-.616-65.929-15.405-110.905.616-28.96,10.475-46.829,40.668-56.688,64.699-11.091-20.95-25.879-41.284-44.981-59.77-5.546-5.546-14.788-5.546-20.95,0-5.546,5.546-5.546,14.788,0,20.95,37.587,37.587,58.537,81.953,59.153,125.707-8.626-1.232-17.253-3.697-25.879-7.394-28.96-13.556-74.559-29.577-123.853-25.264-64.082,4.929-112.759,61.001-117.077,134.941-5.546,88.73,22.182,213.812,95.506,292.065,27.112,28.344,50.527,50.527,92.43,54.224,2.465,0,4.929.616,8.011.616,22.182,0,48.678-6.778,65.929-17.869,9.242-5.546,20.95-5.546,30.193,0,19.101,11.707,50.527,19.101,73.941,17.253,41.9-3.697,65.315-25.879,92.43-54.224,73.323-78.253,100.435-202.724,94.888-292.065v.009ZM359.107,1265.782c25.879-9.242,61.618-4.929,80.718-1.849-3.081,15.405-11.707,39.435-32.658,48.678-35.738,15.405-72.094,15.405-92.43,13.556,7.394-22.182,22.799-52.991,44.365-60.385h.005ZM455.849,1763.654c-24.031,25.264-41.9,42.517-73.941,44.981-16.636,1.849-41.9-4.313-56.072-12.94-18.485-11.707-42.517-11.707-61.001,0-13.556,8.626-38.819,14.788-55.456,12.94-31.425-3.081-49.911-19.718-73.941-44.981-58.537-62.85-93.659-171.301-87.5-270.5,3.081-50.527,32.041-103.518,91.188-107.829,4.313-.616,9.242-.616,13.556-.616,37.587,0,72.094,12.324,96.13,23.415,30.193,14.172,64.699,14.172,95.506,0,25.879-12.324,65.929-26.495,109.065-22.799,58.537,4.929,88.112,57.305,91.188,107.829,4.929,99.206-30.193,207.653-88.73,270.5h.009Z"/>
  <path d="M1149.108,1491.307c-4.313-74.559-52.991-130.012-117.688-135.566-49.294-4.313-94.277,11.707-123.853,25.879-4.929,2.465-9.859,4.313-15.405,5.546,0-11.091-1.849-21.566-3.697-32.658,6.162.616,12.94.616,20.95.616,23.415,0,54.224-3.081,85.647-16.636,47.446-20.334,52.375-83.182,52.991-86.271.616-7.394-4.313-13.556-11.091-15.405-2.465-.616-65.929-15.405-110.905.616-28.96,10.475-46.829,40.668-56.688,64.699-11.091-20.95-25.879-41.284-44.981-59.77-5.546-5.546-14.788-5.546-20.95,0-5.546,5.546-5.546,14.788,0,20.95,37.587,37.587,58.537,81.953,59.153,125.707-8.626-1.232-17.253-3.697-25.879-7.394-28.96-13.556-74.559-29.577-123.853-25.264-64.082,4.929-112.759,61.001-117.077,134.941-5.546,88.73,22.182,213.812,95.506,292.065,27.112,28.344,50.527,50.527,92.43,54.224,2.465,0,4.929.616,8.011.616,22.182,0,48.678-6.778,65.929-17.869,9.242-5.546,20.95-5.546,30.193,0,19.101,11.707,50.527,19.101,73.941,17.253,41.9-3.697,65.315-25.879,92.43-54.224,73.323-78.253,100.435-202.724,94.888-292.065v.009ZM935.914,1265.782c25.879-9.242,61.618-4.929,80.718-1.849-3.081,15.405-11.707,39.435-32.658,48.678-35.738,15.405-72.094,15.405-92.43,13.556,7.394-22.182,22.799-52.991,44.365-60.385h.005ZM1032.655,1763.654c-24.031,25.264-41.9,42.517-73.941,44.981-16.636,1.849-41.9-4.313-56.072-12.94-18.485-11.707-42.517-11.707-61.001,0-13.556,8.626-38.819,14.788-55.456,12.94-31.425-3.081-49.911-19.718-73.941-44.981-58.537-62.85-93.659-171.301-87.5-270.5,3.081-50.527,32.041-103.518,91.188-107.829,4.313-.616,9.242-.616,13.556-.616,37.587,0,72.094,12.324,96.13,23.415,30.193,14.172,64.699,14.172,95.506,0,25.879-12.324,65.929-26.495,109.065-22.799,58.537,4.929,88.112,57.305,91.188,107.829,4.929,99.206-30.193,207.653-88.73,270.5h.009Z"/>
  <rect class="cls-1" x="266.625" y="379.595" width="598" height="598"/>
</svg>