<?xml version="1.0" encoding="UTF-8"?>
<svg id="Layer_1" data-name="Layer 1" xmlns="http://www.w3.org/2000/svg" viewBox="0 0 774.643 893.844">
  <path d="M246.596,210.61c58.312,0,105.66-47.156,105.66-105.33S304.865,0,246.596,0s-105.33,47.156-105.33,105.28,47.109,105.33,105.33,105.33h0Z"/>
  <path d="M772.996,301.22c-.656-67.688-.938-93.047-2.531-111.94-3.141-37.969-21.516-69.188-51.656-87.844-29.391-18.188-67.125-22.453-96.141-10.875-17.578,7.031-30.656,15.094-44.438,23.672-23.156,14.344-49.359,30.609-106.5,47.062-33.938,9.75-66.141,10.547-85.406,10.969-17.391.422-23.906.562-27.656,7.125-1.734,3.047-1.734,7.828-.047,10.875,6,10.875,9.516,22.359,11.25,33.75-8.391,1.359-17.906,3.281-28.781,5.531-20.672,4.266-44.062,9.141-71.062,12.094-33.188,3.656-62.203,9.422-88.172,15.891-2.953-10.219-5.344-16.641-6.516-19.594,0-.047.047-.141.047-.234,0-3.375-1.266-6.562-3.703-8.906-6.891-6.703-18.516-6.516-69,12.188-20.016,7.406-35.438,14.391-47.062,21.422-14.203,4.219-26.484,13.172-36.281,27.375-25.312,31.125-20.719,62.297-14.297,105.42l5.625,43.266,26.156,217.87q26.203,214.6,32.297,217.82c3,1.594,6.609,1.547,9.516-.094,4.312-2.391,9.375-4.969,14.953-7.641,0,9.141,0,18.281.047,27.422,18.609-.281,317.11-4.969,335.26-5.203-.094-34.734-.469-69.703-1.125-104.11,66.703-19.219,144.94-49.641,148.87-71.391.047-.281.047-.609.047-.891,0-2.438-1.875-5.109-5.391-7.969-.234-1.969-.938-3.938-2.484-5.484-40.688-41.719-55.125-93.891-55.125-146.68,0-116.72,70.688-236.44,84.469-252.42,11.578-13.406,23.016-22.172,30.703-26.906.047,5.062.047,11.391.047,18v13.312c0,29.25.188,67.219,2.719,103.92.281,4.312,3.328,7.922,7.5,9l123,31.781c3,.75,6.188.094,8.672-1.828,2.437-1.922,3.844-4.875,3.844-8.016l-1.647-137.74ZM109.576,259.876c29.062-10.781,41.531-13.781,47.062-14.578,1.734,4.359,8.672,22.969,15.375,58.406-22.453-16.594-47.578-32.719-72.234-40.031,3.141-1.266,6.281-2.531,9.797-3.797h0ZM63.92,435.696l58.875,37.453c32.859,21.703,52.312,34.406,75.984,36.422-.609,1.359-.984,2.766-.75,4.078,11.859,67.453,36.75,240.56,40.875,277.45-60.938,18.656-121.97,41.578-157.55,59.062-9.375-66.703-48.656-391.4-50.859-413.63l-5.766-44.203c-2.625-17.625-4.781-32.25-4.781-45.141,0-17.062,3.797-31.172,15.281-45.328,9.047-12.984,19.219-19.875,31.594-21.75,36.047-5.484,83.672,31.734,118.45,58.922l25.594,19.266c7.031,4.875,8.062,4.5,160.97-89.016,7.781,21.609,25.5,71.391,39.281,110.2-13.078,7.688-164.44,97.172-164.44,97.172-.469.281-21.328,13.359-41.156,13.359-20.953,0-37.922-11.203-71.719-33.562l-59.578-37.922c-4.641-2.953-10.641-1.453-13.594,3.188-2.953,4.688-1.359,11.016,3.281,13.969l.008.011ZM651.21,399.555c-2.062-33.844-2.391-68.391-2.391-95.484v-10.781c0-26.344-.188-33.141-1.453-36.938-1.125-3.422-5.062-6.75-8.578-7.453-12.422-2.484-38.156,17.25-55.875,37.781-16.875,19.547-89.766,142.64-89.766,265.13,0,49.922,13.406,99.281,46.359,141.89-26.484,2.531-74.766,18.188-161.06,69.75-12.984-32.062-53.25-158.29-53.25-278.11,0-10.969.516-21.844,1.266-32.625l101.86-60.188c4.125-2.438,5.953-7.453,4.359-11.953-1.734-4.875-3.375-9.516-4.969-14.016,65.578-47.109,25.875-126.61-34.312-96.281-1.453-4.078-2.672-7.359-3.609-9.984.891-6.281,1.406-12.75,1.406-19.406,0-15.703-3.797-32.109-10.453-48.234,2.906-.141,6.047-.328,6.047-.328,20.203-.469,54.047-1.266,90.469-11.766,59.812-17.203,87.234-34.266,111.52-49.266,13.594-8.438,25.359-15.703,41.297-22.078,22.969-9.188,54.375-5.438,78.188,9.281,17.438,10.781,38.906,32.109,42.234,72.469,1.5,18.141,1.781,45.188,2.438,110.44,0,0,1.172,103.36,1.453,124.78-19.031-4.922-91.828-23.719-103.17-26.625l-.01-.005Z"/>
</svg>