<?xml version="1.0" encoding="UTF-8"?>
<svg id="Layer_1" data-name="Layer 1" xmlns="http://www.w3.org/2000/svg" viewBox="0 0 1180.76 1115.816">
  <defs>
    <style>
      .cls-1 {
        fill: red;
        fill-rule: evenodd;
      }
    </style>
  </defs>
  <path d="M562.24,481.908c0-5.301,4.301-9.598,9.598-9.598,5.062,0,9.223,3.926,9.574,8.898.855.859,3.926,2.625,8.953,2.625,5.508,0,8.672-2.113,9.141-2.84,0-5.301,4.195-9.141,9.504-9.141s9.492,4.754,9.492,10.055c0,11.848-12.363,21.121-28.137,21.121s-28.125-9.273-28.125-21.121h0ZM165.49,196.088c0-9.539-5.887-16.73-13.695-16.73s-13.695,7.191-13.695,16.73,5.891,16.734,13.695,16.734c7.809-.004,13.695-7.195,13.695-16.734ZM562.99,441.228c0-7.207-4.445-12.637-10.344-12.637s-10.344,5.43-10.344,12.637,4.449,12.641,10.344,12.641,10.344-5.434,10.344-12.641ZM235.87,257.578c0-5.301-4.297-9.598-9.598-9.598s-9.598,4.297-9.598,9.598c0,1.082-4.98,5.668-14.934,5.668s-14.93-4.582-14.93-5.668c0-5.301-4.297-9.598-9.598-9.598s-9.598,4.297-9.598,9.598c0,13.941,14.988,24.859,34.125,24.859,19.141.004,34.129-10.922,34.129-24.859h0ZM182.561,220.234c.984-3.164-.781-6.527-3.945-7.516-3.188-.965-6.527.785-7.516,3.945-1.465,4.703-13.109,15.586-23.051,22.969-2.66,1.977-3.215,5.73-1.242,8.391,1.176,1.586,2.988,2.426,4.824,2.426,1.242,0,2.496-.387,3.57-1.176,3.973-2.957,23.977-18.215,27.359-29.039h0ZM639.011,623.134h-97.277c-6.633,0-12,5.367-12,12s5.367,12,12,12h97.277c6.633,0,12-5.367,12-12s-5.367-12-12-12ZM1177.722,665.157c-.875.98-1.992,1.637-3.105,2.273l.762,6.363c1.406,11.73-2.285,23.531-10.125,32.367-7.84,8.836-19.113,13.91-30.938,13.91h-23.027l.023,311.44c0,4.016-.633,7.785-1.555,11.379,23.137,8.125,39.875,29.961,39.875,55.84,0,9.527-7.559,17.086-16.84,17.086h-127.03c-9.281,0-16.84-7.559-16.84-16.84v-21.152c0-10.828,4.531-20.586,11.754-27.59-2.59-5.488-4.172-11.816-4.172-18.723l-7.359-244.55c-.164-5.519-4.617-9.844-10.137-9.844s-9.973,4.324-10.137,9.844l-7.359,244.91c0,6.758-1.57,12.98-4.137,18.398,7.199,7,11.707,16.746,11.707,27.551v21.152c0,9.281-7.559,16.84-16.84,16.84h-127.03c-9.281,0-16.84-7.559-16.84-16.84,0-26.074,16.738-47.949,39.879-56.082-.926-3.598-1.559-7.367-1.559-11.383v-311.44h-23.004c-11.824,0-23.098-5.074-30.938-13.91-7.84-8.836-11.531-20.637-10.125-32.367l.762-6.363c-1.113-.637-2.231-1.297-3.106-2.273-2.273-2.555-3.352-5.965-2.953-9.363l25.688-221.33c9.152-46.234,40.676-84.043,82.406-99.613,9.234-3.453,19.406-2.812,28.617,1.789,2.836,1.414,6.215,2.688,9.856,3.875v-22.051c-22.09-14.965-40.141-38.07-52.316-64.516-.988.215-1.934.562-2.949.691-1.559.203-3.117.305-4.664.305-19.652,0-37.43-16.055-40.816-37.824-1.66-10.75.621-21.465,5.941-30.219-3.465-11.695-5.484-23.922-5.484-36.594v-22.043C823.606,57.537,886.887,0,964.666,0h28.676c77.777,0,141.06,57.535,141.06,128.26v22.043c0,12.672-2.02,24.898-5.484,36.594,5.316,8.754,7.602,19.473,5.941,30.215-3.387,21.773-21.164,37.824-40.816,37.828-1.547,0-3.105-.102-4.664-.305-1.184-.156-2.293-.543-3.445-.812-12.078,26.273-29.949,49.262-51.82,64.262v22.43c3.645-1.184,7.023-2.461,9.867-3.875,9.211-4.602,19.359-5.234,28.605-1.789,41.719,15.57,73.23,53.352,82.242,98.602.07.316.117.641.152.961l25.699,221.39c.398,3.391-.68,6.801-2.953,9.356l-.004-.002ZM1107.701,197.917c-1.121-1.5-2.891-3.227-5.344-4.324-1.16,12.492-3.785,25.027-7.586,37.242,7.68-.434,14.871-7.82,16.363-17.402.891-5.766-.363-11.426-3.434-15.516h0ZM862.671,230.823c-3.769-12.121-6.375-24.555-7.547-36.953-2.172,1.102-3.793,2.66-4.832,4.047-3.07,4.09-4.324,9.75-3.434,15.52,1.461,9.34,8.344,16.613,15.812,17.387h0ZM885.487,133.057c10.57-1.766,20.191-8.977,25.734-19.301,15.715-29.32,51.891-48.266,92.145-48.266,55.301,0,100.29,35.734,100.29,79.664,0,4.996-.598,10.031-1.793,14.992.391,3.102.664,5.992.867,8.805,1.918.285,3.785.738,5.609,1.316,1.262-6.508,2.055-13.156,2.055-19.98v-22.043c0-57.484-52.512-104.26-117.06-104.26h-28.676c-64.547,0-117.06,46.77-117.06,104.26v22.043c0,6.824.793,13.473,2.055,19.98,1.699-.539,3.449-.945,5.231-1.23.531-8.305,1.512-16.723,3.426-25.27,1.207-5.414,5.965-9.293,11.508-9.387,5.648-.086,10.922-.531,15.668-1.324h.002ZM978.721,312.267c56.531,0,100.38-71.922,100.38-133.8,0-5.293-.422-10.832-1.324-17.438-.234-1.637-.117-3.293.328-4.875,1.031-3.656,1.547-7.359,1.547-11.004,0-30.691-34.219-55.664-76.289-55.664-31.043,0-59.578,14.309-71.004,35.609-9.152,17.078-24.797,28.605-42.938,31.629-3,.504-6.141.891-9.41,1.168-1.125,7.004-1.676,13.797-1.676,20.578,0,61.871,43.852,133.79,100.38,133.79l.006.007ZM978.721,336.267c-10.75,0-21.023-2.098-30.832-5.578v15.129c9.731,1.383,20.297,2.172,31.113,2.172s21.375-.789,31.102-2.172v-15.332c-9.973,3.609-20.43,5.781-31.383,5.781h0ZM849.411,669.167h-42.062l-.898,7.477c-.598,4.992.902,9.82,4.242,13.582,3.34,3.762,7.945,5.836,12.984,5.836h24.129l1.605-26.894ZM945.075,1077.807c0-4.387-2.062-8.191-5.152-10.852-2.836,1.031-5.797,1.746-8.945,1.746h-53.754c-5.547,0-10.633-1.859-15.074-4.891-14.59,2.344-26.242,13.582-29.105,27.988h112.03v-13.991ZM1013.137,786.217l7.359,244.91c0,8.555,4.23,13.57,6.527,13.57h53.754c2.297,0,6.527-5.016,6.527-13.207v-316.56l-3.898-65.156h-208.8l-3.945,65.871.023,315.84c0,8.191,4.231,13.207,6.539,13.207h53.754c2.297,0,6.527-5.016,6.527-13.207l7.359-245.27c.574-18.574,15.562-33.117,34.137-33.117s33.562,14.543,34.137,33.117l-.002.002ZM1095.848,1063.807c-4.438,3.031-9.52,4.891-15.07,4.891h-53.754c-3.152,0-6.109-.719-8.949-1.754-3.094,2.66-5.16,6.469-5.16,10.859v13.992h112c-2.914-14.473-14.531-25.652-29.062-27.988h-.005ZM1151.536,676.637l-.898-7.477h-42.047l1.605,26.895h24.109c5.039,0,9.645-2.074,12.984-5.836,3.344-3.762,4.844-8.59,4.246-13.582h0ZM1155.275,645.16l-24.082-207.5c-7.523-36.953-33.164-67.711-67.008-80.336-2.965-1.109-6.34-.828-9.492.773-17.73,8.828-45.316,13.891-75.691,13.891s-57.973-5.062-75.68-13.887c-3.176-1.586-6.562-1.875-9.516-.777-33.996,12.684-59.719,43.672-67.113,80.848l-23.977,206.99h39.809c-1.856-2.328-2.918-5.195-2.719-8.191l9.141-136.08c.457-6.609,5.977-11.676,12.785-11.168,6.609.441,11.613,6.164,11.168,12.773l-8.285,123.29h228.76l-8.285-123.29c-.445-6.609,4.559-12.332,11.168-12.773,6.879-.477,12.328,4.559,12.785,11.168l9.141,136.08c.199,2.996-.859,5.863-2.719,8.191l39.811-.002ZM726.205,624.207l19.418,163.88c.398,3.398-.668,6.809-2.953,9.375-.402.457-.977.672-1.438,1.059l.383,3.184c1.16,9.691-1.887,19.441-8.367,26.754-6.481,7.301-15.797,11.484-25.559,11.484h-14.473l.023,209.36c0,2.254-.266,4.426-.684,6.535,17.371,7.219,29.629,24.336,29.629,44.289,0,8.648-7.031,15.68-15.668,15.68h-95.918c-8.637,0-15.668-7.031-15.668-15.68v-15.855c0-8.391,3.309-15.973,8.594-21.699-1.777-4.012-2.875-8.477-2.875-13.27l-5.543-171.01c-.059-1.641-1.969-3.41-4.734-3.41s-4.676,1.758-4.734,3.41l-5.566,171.4c.004,4.641-1.07,8.992-2.82,12.922,5.266,5.723,8.562,13.289,8.562,21.66v15.855c0,8.648-7.031,15.68-15.68,15.68h-95.906c-8.648,0-15.68-7.031-15.68-15.68,0-19.949,12.262-37.066,29.629-44.285-.418-2.109-.684-4.285-.684-6.539v-209.36h-14.438c-9.773,0-19.09-4.184-25.57-11.496-6.48-7.301-9.527-17.051-8.367-26.742l.383-3.195c-.457-.383-1.023-.598-1.426-1.047-2.285-2.566-3.352-5.977-2.953-9.375l19.406-163.84c7.172-35.559,31.711-64.422,64.195-76.301,7.676-2.824,16.137-2.309,23.789,1.434,1.004.488,2.144.945,3.293,1.398v-15.785c-17.344-12.293-31.402-31.012-40.547-52.199-1.223.273-2.41.645-3.668.785-1.324.145-2.648.215-3.961.215-16.945,0-31.898-11.934-34.969-28.594-1.609-8.793.395-17.516,5.625-24.59-2.145-7.02-3.375-14.805-3.375-23.727v-17.898c0-58.664,51.188-106.39,114.12-106.39h22.688c62.918,0,114.11,47.73,114.11,106.39v17.898c0,8.922-1.231,16.707-3.375,23.727,5.234,7.078,7.238,15.797,5.625,24.578-3.07,16.672-18.035,28.605-34.969,28.605-1.312,0-2.625-.07-3.961-.215-1.254-.137-2.441-.508-3.66-.781-9.144,21.191-23.207,39.91-40.555,52.203v15.773c1.144-.453,2.281-.906,3.281-1.394,7.641-3.738,16.09-4.262,23.789-1.441,32.496,11.883,57.023,40.734,64.055,75.289.059.328.117.656.152.984l-.005-.007ZM693.146,444.867c-1.394-1.875-3.621-3.07-6.258-3.359-.156-.016-.305.047-.461.039-.656,6.035-1.68,12.078-3.144,18.062,5.316-.102,10.27-3.781,11.188-8.766.516-2.781-.434-4.785-1.324-5.977h0ZM497.466,459.609c-1.473-6.004-2.5-12.07-3.156-18.125-.156.012-.309.008-.465.027-2.637.289-4.863,1.484-6.258,3.359-.891,1.191-1.84,3.195-1.324,5.988.922,4.969,5.93,8.648,11.203,8.75h0ZM508.064,391.675c27.492-.445,52.418-11.949,68.379-31.547,3.457-4.219,8.519-6.629,13.934-6.629h.023c5.414.008,10.477,2.422,13.898,6.629,15.727,19.312,41.285,31.109,68.379,31.547,5.543.094,10.301,3.973,11.508,9.387,1.266,5.668,2.004,11.133,2.488,16.547.953.027,1.883-.062,2.844.043.465.051.895.219,1.352.289.57-3.375.957-6.973.957-11.051v-17.898c0-45.434-40.418-82.395-90.105-82.395h-22.688c-49.688,0-90.117,36.961-90.117,82.395v17.898c0,4.078.383,7.68.957,11.051.461-.07.887-.238,1.352-.289.965-.105,1.902-.012,2.859-.043.488-5.457,1.227-10.973,2.473-16.547,1.207-5.414,5.965-9.293,11.508-9.387h0ZM590.376,526.035c37.465,0,72.891-47.691,72.891-98.129,0-4.211-.293-8.445-.891-12.793-28.172-2.707-53.719-14.918-72-34.473-18.281,19.547-43.828,31.766-72,34.473-.598,4.328-.891,8.566-.891,12.793,0,50.441,35.426,98.129,72.891,98.129h0ZM590.376,550.035c-7.109,0-13.977-1.09-20.566-3.059v9.316c6.492.789,13.465,1.219,20.566,1.219s14.062-.43,20.555-1.219v-9.312c-6.586,1.969-13.453,3.055-20.555,3.055ZM488.256,815.945l.926-14.449h-25.855l-.367,3.07c-.352,2.93.527,5.754,2.484,7.957,1.957,2.203,4.664,3.422,7.617,3.422h15.195ZM561.818,1084.265c0-2.352-1.035-4.426-2.633-5.906-1.648.375-3.348.586-5.09.586h-40.605c-3.555,0-6.941-.828-10.031-2.305-8.914,1.176-16.383,6.98-19.418,15.16h77.777v-7.535ZM619.088,877.495l5.555,171.41c.012,3.773,1.582,5.801,2.227,6.07l40.383-.035c.434-.234,1.992-2.262,1.992-5.648v-221.53l-2.648-40.91h-152.43l-2.688,41.684.023,220.76c0,3.387,1.57,5.414,2.215,5.684l40.383-.035c.434-.234,1.992-2.262,1.992-5.648l5.578-171.79c.48-14.941,13.09-26.637,28.711-26.637s28.219,11.695,28.711,26.625h-.004ZM677.283,1076.635c-3.09,1.48-6.477,2.309-10.035,2.309h-40.605c-1.738,0-3.434-.211-5.078-.586-1.598,1.48-2.633,3.555-2.633,5.906v7.535h77.766c-3.031-8.184-10.504-13.988-19.414-15.164h-.001ZM717.783,804.565l-.367-3.07h-25.836l.93,14.449h15.184c2.941,0,5.648-1.219,7.606-3.422s2.836-5.027,2.484-7.957h0ZM720.197,777.495l-17.766-149.95c-5.496-26.238-24.105-48.07-48.668-57.059-2.027-.742-4.008-.016-5.016.461-13.734,6.715-35.016,10.57-58.371,10.57s-44.648-3.856-58.395-10.57c-.984-.484-2.965-1.234-5.016-.457-24.703,9.035-43.395,31.082-48.75,57.547l-17.672,149.46h22.238c-.262-1.133-.555-2.262-.477-3.445l6.902-102.8c.457-6.609,6-11.484,12.785-11.168,6.609.445,11.613,6.164,11.168,12.785l-6.047,89.988h166.51l-6.047-89.988c-.445-6.621,4.559-12.34,11.168-12.785,6.926-.281,12.34,4.559,12.785,11.168l6.902,102.8c.078,1.184-.215,2.312-.477,3.445l22.242-.002ZM251.687,212.815c7.805,0,13.695-7.195,13.695-16.734s-5.891-16.73-13.695-16.73-13.691,7.191-13.691,16.73c.004,9.543,5.887,16.734,13.691,16.734ZM248.285,249.26c1.074.797,2.328,1.184,3.57,1.184,1.832,0,3.645-.836,4.824-2.426,1.977-2.66,1.418-6.418-1.242-8.391-9.938-7.383-21.578-18.266-23.047-22.969-.984-3.164-4.348-4.918-7.516-3.945-3.164.988-4.926,4.356-3.945,7.516,3.379,10.824,23.379,26.082,27.355,29.031h0ZM929.055,212.815c7.805,0,13.691-7.195,13.691-16.734s-5.887-16.73-13.691-16.73-13.695,7.191-13.695,16.73,5.891,16.734,13.695,16.734ZM201.755,400.915c-10.961,0-19.883,8.918-19.883,19.883s8.918,19.883,19.883,19.883,19.875-8.918,19.875-19.883-8.918-19.883-19.875-19.883ZM201.755,511.615c-10.961,0-19.883,8.918-19.883,19.883s8.918,19.883,19.883,19.883,19.875-8.918,19.875-19.883-8.918-19.883-19.875-19.883ZM971.365,116.615h63.328c3.316,0,6-2.684,6-6s-2.684-6-6-6h-63.328c-3.316,0-6,2.684-6,6s2.684,6,6,6h0ZM201.755,456.275c-10.961,0-19.883,8.918-19.883,19.883s8.918,19.875,19.883,19.875,19.875-8.918,19.875-19.875-8.918-19.883-19.875-19.883h0ZM628.105,453.869c5.898,0,10.344-5.434,10.344-12.641s-4.449-12.637-10.344-12.637-10.34,5.43-10.34,12.637c-.004,7.207,4.441,12.641,10.34,12.641ZM377.725,434.412l25.699,221.39c.398,3.398-.68,6.809-2.953,9.363-.875.977-1.992,1.633-3.105,2.269l.762,6.367c1.406,11.73-2.285,23.531-10.125,32.367-7.84,8.836-19.113,13.91-30.926,13.91h-21.25l7.785,205.8c.246,6.481-2.191,12.879-6.691,17.555-4.5,4.676-10.805,7.359-17.285,7.359l-3.922-.004v88.812c31.457,1.461,56.668,27.309,56.668,59.125,0,9.527-7.559,17.086-16.84,17.086h-127.03c-9.289,0-16.84-7.559-16.84-16.84v-21.152c0-8.844,3.117-16.902,8.152-23.41-.059-1.09-.215-2.129-.215-3.25l-2.289-100.37h-31.145l-2.293,100.64c0,1.031-.148,1.992-.199,3,5.027,6.504,8.141,14.555,8.141,23.391v21.152c0,9.281-7.551,16.84-16.84,16.84H47.962c-9.289,0-16.848-7.559-16.848-16.84,0-32.059,25.211-57.914,56.676-59.371v-88.809l-3.914-.004c-6.484,0-12.793-2.684-17.293-7.359s-6.945-11.074-6.699-17.555l7.777-205.8h-21.227c-11.812,0-23.086-5.062-30.926-13.91-7.844-8.836-11.535-20.625-10.129-32.367l.762-6.363c-1.117-.637-2.231-1.293-3.102-2.273-2.277-2.555-3.359-5.965-2.957-9.363l25.688-221.33c9.145-46.234,40.664-84.043,82.406-99.613,9.234-3.453,19.395-2.805,28.609,1.789,2.84,1.414,6.219,2.691,9.859,3.875v-17.078c-47.238-.293-85.996-36.789-89.969-83.086-5.434-6.316-9.383-14.234-10.777-23.234-1.875-12.121,1.02-24.367,7.953-33.605.137-.18.309-.312.449-.492-2.699-10.52-4.281-21.441-4.281-32.719v-22.043C50.02,57.539,111.817.002,187.78.002h27.945C291.69.002,353.495,57.537,353.495,128.262v22.043c0,11.281-1.582,22.203-4.285,32.727.141.18.316.312.453.496,6.926,9.234,9.82,21.48,7.945,33.59-1.398,8.996-5.348,16.914-10.777,23.23-3.965,46.301-42.723,82.801-89.969,83.09v17.078c3.645-1.188,7.031-2.461,9.871-3.879,9.203-4.602,19.359-5.234,28.602-1.789,41.719,15.57,73.23,53.352,82.242,98.602.066.324.113.645.148.969v-.007ZM319.377,254.682c-.867.062-1.711.262-2.582.262-1.547,0-3.105-.102-4.672-.305-1.098-.145-2.121-.512-3.191-.75-6.605,14.359-14.914,27.738-24.699,39.391,16.344-7.555,29.113-21.477,35.145-38.598h0ZM330.463,197.928c-1.086-1.441-2.785-3.086-5.094-4.191-1.168,12.441-3.781,24.922-7.562,37.086,7.5-.645,14.605-7.941,16.078-17.387.891-5.762-.352-11.41-3.422-15.508h0ZM74.023,150.303c0,6.539.734,12.914,1.863,19.164.68-.145,1.336-.371,2.027-.477.523-8.246,1.492-16.547,3.422-25.203,1.207-5.422,5.969-9.297,11.512-9.391,37.547-.613,71.617-16.359,93.488-43.203,7.578-9.324,23.242-9.34,30.844.008,21.859,26.836,55.941,42.578,93.477,43.195,5.547.094,10.305,3.973,11.516,9.387,1.906,8.523,2.887,16.926,3.422,25.207.699.105,1.355.336,2.043.48,1.129-6.254,1.863-12.625,1.863-19.164v-22.043c0-57.484-51.035-104.26-113.77-104.26h-27.945c-62.727,0-113.76,46.77-113.76,104.26l-.003,22.039ZM85.703,230.83c-3.785-12.164-6.398-24.648-7.566-37.09-2.309,1.105-4.004,2.746-5.09,4.184-3.07,4.098-4.324,9.75-3.426,15.516,1.469,9.461,8.496,16.777,16.082,17.391h0ZM119.277,293.275c-9.785-11.652-18.098-25.031-24.703-39.391-1.07.238-2.098.609-3.199.75-1.566.203-3.121.305-4.664.305-.875,0-1.719-.199-2.582-.262,6.031,17.125,18.801,31.051,35.148,38.598h0ZM201.757,312.279c56.531,0,100.38-71.922,100.38-133.8,0-6.773-.551-13.551-1.672-20.543-39.023-3.008-74.355-20.078-98.711-47.82-24.363,27.742-59.691,44.812-98.715,47.82-1.125,7.004-1.676,13.789-1.676,20.543,0,61.875,43.852,133.8,100.39,133.8h.004ZM201.757,336.279c-10.852,0-21.219-2.133-31.109-5.68v15.23c9.73,1.383,20.293,2.172,31.109,2.172s21.371-.789,31.102-2.172v-15.23c-9.891,3.547-20.254,5.68-31.102,5.68ZM69.597,669.179H30.105l-.898,7.477c-.598,4.992.914,9.82,4.254,13.582,3.34,3.762,7.953,5.836,12.98,5.836h22.141l1.016-26.894ZM167.835,1077.819c0-7.992-6.504-14.496-14.496-14.496h-62.812c-17.156,0-31.5,12.27-34.723,28.488h112.03v-13.992ZM153.339,1039.323c2.336,0,4.598.289,6.816.688l2.031-89.223h-50.387v88.535h41.539ZM312.989,1063.323h-62.812c-7.992,0-14.496,6.504-14.496,14.496v13.992h111.99c-3.277-16.301-17.586-28.488-34.68-28.488h-.002ZM243.368,1040.011c2.219-.398,4.48-.688,6.812-.688h41.543v-88.535h-50.387l2.031,89.223ZM319.641,926.791l-10.484-277H94.357l-10.469,277h235.753ZM374.297,676.651l-.895-7.477h-39.496l1.016,26.895h22.156c5.027,0,9.633-2.074,12.973-5.836,3.344-3.762,4.844-8.59,4.246-13.582h0ZM378.035,645.174l-24.082-207.5c-7.523-36.953-33.164-67.711-67.008-80.336-2.922-1.09-6.297-.816-9.496.773-17.719,8.828-45.305,13.891-75.684,13.891s-57.973-5.062-75.68-13.887c-3.211-1.605-6.586-1.867-9.512-.777-34.008,12.684-59.723,43.672-67.105,80.848l-23.992,206.99h39.816c-1.852-2.328-2.914-5.195-2.711-8.191l9.141-136.08c.445-6.609,6.188-11.676,12.773-11.168,6.613.441,11.613,6.164,11.168,12.773l-8.285,123.29h228.76l-8.266-123.29c-.445-6.609,4.551-12.332,11.164-12.773,6.949-.477,12.34,4.559,12.785,11.168l9.129,136.08c.199,2.996-.859,5.863-2.719,8.191l39.804-.002ZM1028.965,212.814c7.805,0,13.695-7.195,13.695-16.734s-5.891-16.73-13.695-16.73-13.691,7.191-13.691,16.73,5.883,16.734,13.691,16.734ZM1013.149,249.943c0-5.301-4.301-9.598-9.598-9.598s-9.598,4.297-9.598,9.598c0,1.078-4.981,5.66-14.941,5.66s-14.93-4.582-14.93-5.66c0-5.301-4.301-9.598-9.598-9.598s-9.598,4.297-9.598,9.598c0,13.941,14.988,24.855,34.125,24.855s34.137-10.914,34.137-24.855h0ZM639.029,659.743h-97.277c-6.633,0-12,5.367-12,12s5.367,12,12,12h97.277c6.633,0,12-5.367,12-12s-5.367-12-12-12ZM954.489,138.783h97.102c3.316,0,6-2.684,6-6s-2.684-6-6-6h-97.102c-3.316,0-6,2.684-6,6s2.684,6,6,6h0ZM1045.86,232.588c-14.168-7.195-27.949-16.492-29.496-19.898-1.371-3.016-4.91-4.34-7.945-2.977-3.012,1.371-4.348,4.926-2.977,7.945,4.324,9.496,27.867,22.02,34.98,25.629.879.441,1.805.648,2.719.648,2.18,0,4.289-1.203,5.344-3.281,1.512-2.961.328-6.566-2.625-8.066h0ZM952.602,217.658c1.371-3.016.035-6.574-2.977-7.945-3-1.363-6.562-.043-7.945,2.977-1.547,3.402-15.328,12.703-29.496,19.898-2.953,1.5-4.125,5.109-2.625,8.07,1.055,2.078,3.164,3.281,5.344,3.281.914,0,1.852-.211,2.719-.648,7.113-3.613,30.656-16.137,34.98-25.633h0Z"/>
  <path class="cls-1" d="M619.969,185.081l63.195.062-97.266,97.116-97.116-97.266,63.195.062.06-179.507,68.043.054-.111,179.48h0Z"/>
</svg>