<?xml version="1.0" encoding="UTF-8"?>
<svg id="Layer_1" data-name="Layer 1" xmlns="http://www.w3.org/2000/svg" viewBox="0 0 865.272 929.179">
  <path d="M416.392,122.741c0-38.39-32.39-70.781-70.781-70.781-39.609,0-72,32.391-72,72,0,19.172,7.172,37.172,20.391,50.391,13.172,13.172,31.172,20.391,50.391,20.391,39.609,0,72-32.391,72-72h0ZM396.002,123.96c0,28.828-22.828,51.609-51.609,51.609-13.219,0-26.391-6-36-15.609-10.828-9.609-15.609-22.781-15.609-36,0-28.828,22.828-51.609,51.609-51.609,28.828,0,51.609,22.781,51.609,51.609Z"/>
  <path d="M344.391,203.132c-46.781,0-85.172,38.438-85.172,86.438v190.78c0,24,12,49.172,28.781,64.781v319.22c-15.609,4.781-57.609,18-57.609,18-9.562,3.609-16.781,13.219-16.781,24v3.609c1.172,10.828,9.61,19.219,20.391,19.219h133.22c8.391,0,15.61-2.391,20.391-8.391,6-7.219,8.391-16.828,8.391-25.219v-8.391c-2.391-10.828-7.172-24-8.391-27.609v-307.22c25.219-15.61,42-42,42-73.219v-190.78c0-46.828-38.438-85.219-85.219-85.219h-.002ZM372.004,906.353s-1.219,1.219-4.734.047h-133.22s-1.219-2.391-1.219-3.609v-1.219c1.219-2.391,2.391-3.609,3.609-3.609l64.781-20.391c4.828-1.219,7.219-4.828,7.219-9.609v-330c0-2.438-1.219-4.828-3.609-7.219-15.61-12-25.219-32.39-25.219-52.781v-190.78c0-36,28.781-64.781,64.781-64.781,36,0,64.781,28.781,64.781,64.781v190.78c0,25.172-14.438,48-37.219,58.781-3.609,2.391-6,6-6,9.609v314.39c0,1.219,1.219,2.391,1.219,3.609,1.219,4.828,6,16.828,7.219,25.219,1.219,6,0,13.172-2.391,16.781h.002Z"/>
  <path d="M564.001,203.132c-46.781,0-84,38.438-85.172,86.438v190.78c0,24,12,49.172,28.781,64.781v319.22c-15.609,4.781-57.609,18-57.609,18-9.562,3.609-16.781,13.219-16.781,24v3.609c1.172,10.828,9.61,19.219,20.391,19.219h133.22c8.391,0,15.61-2.391,20.391-8.391,6-7.219,8.391-16.828,8.391-25.219v-8.391c-2.391-10.828-7.172-24-8.391-27.609v-307.22c25.219-15.61,42-42,42-73.219v-190.78c0-46.828-38.438-85.219-85.219-85.219h-.002ZM591.614,906.353s-1.219,1.219-4.734.047h-133.22s-1.219-2.391-1.219-3.609v-1.219c1.219-2.391,2.391-3.609,3.609-3.609l64.781-20.391c4.828-1.219,7.219-4.828,7.219-9.609v-330c0-2.438-1.219-4.828-3.609-7.219-15.61-12-25.219-32.39-25.219-52.781v-190.78c0-36,28.781-64.781,64.781-64.781s64.781,28.781,64.781,64.781v190.78c0,25.172-14.438,48-37.219,58.781-3.609,2.391-6,6-6,9.609v314.39c0,1.219,1.219,2.391,1.219,3.609,1.219,4.828,6,16.828,7.219,25.219,1.219,6,0,13.172-2.391,16.781h.002Z"/>
  <path d="M181.223,72.352c-13.219-13.219-31.219-20.391-50.391-20.391-39.609,0-72,32.391-72,72,0,19.172,7.172,37.172,20.391,50.391,13.172,13.172,31.172,20.391,50.391,20.391,39.609,0,72-32.391,72-72,0-19.172-7.172-37.172-20.391-50.391h0ZM166.785,86.743c9.609,9.609,15.609,22.828,15.609,36,0,28.828-22.828,51.609-51.609,51.609-13.219,0-26.391-6-36-15.609-10.828-9.609-15.609-22.781-15.609-36,0-28.828,22.828-51.609,51.609-51.609,13.219,0,26.391,6,36,15.609h0Z"/>
  <path d="M130.781,203.132c-46.781,0-85.172,38.438-85.172,86.438v190.78c0,24,12,49.172,28.781,64.781v319.22c-15.609,4.781-57.609,18-57.609,18C7.219,885.96,0,895.57,0,906.351v3.609c1.172,10.828,9.61,19.219,20.391,19.219h133.22c8.391,0,15.61-2.391,20.391-8.391,6-7.219,8.391-16.828,8.391-25.219v-8.391c-2.391-10.828-7.172-24-8.391-27.609v-307.22c25.219-15.61,42-42,42-73.219v-190.78c0-46.828-38.438-85.219-85.219-85.219h-.002ZM158.394,906.353c-1.172,0-1.172,1.219-4.734.047H20.44s-1.219-2.391-1.219-3.609v-1.219c1.219-2.391,2.391-3.609,3.609-3.609l64.781-20.391c4.828-1.219,7.219-4.828,7.219-9.609v-330c0-2.438-1.219-4.828-3.609-7.219-15.61-12-25.219-32.39-25.219-52.781v-190.78c0-36,28.781-64.781,64.781-64.781s64.781,28.781,64.781,64.781v190.78c0,25.172-14.438,48-37.219,58.781-3.609,2.391-6,6-6,9.609v314.39c0,1.219,1.219,2.391,1.219,3.609,1.219,4.828,6,16.828,7.219,25.219,1.219,6,0,13.172-2.391,16.781h.002Z"/>
  <path d="M672.006,885.953c-8.39,3.61-12,10.781-10.734,18.094v3.609c1.172,8.391,7.172,14.391,14.391,14.391h134.39c7.218,0,12-2.391,15.609-6,8.391-9.562,6-25.172,6-28.781-2.391-10.782-8.391-27.61-8.391-26.391v-313.22c25.219-13.218,42-39.609,42-69.609v-190.78c0-43.219-36-79.219-79.219-79.219h-8.391v-1.219c-2.391-1.219-3.562-2.391-4.781-3.609l-115.22-180c-8.39-13.172-18-20.39-27.609-22.781-6-1.172-12,0-16.781,3.609-16.828,12-6,36,2.391,50.391,10.78,19.17,135.561,215.999,136.78,218.39,2.391,3.61,1.172,10.828-3.609,13.219-3.61,2.391-10.828,1.172-13.219-3.609-1.219-2.438-8.438-14.438-19.219-31.219-9.562,12-10.781,30-10.781,34.781v190.78c0,22.782,12,48,28.781,62.391v326.39c-12,4.782-62.391,20.391-62.391,20.391h.003Z"/>
  <path d="M850.784,121.524c0-18-7.219-34.781-19.219-46.781-13.172-12-28.781-19.219-46.781-19.219-25.172,0-48,15.61-58.781,37.219l60,93.609c36,0,64.781-30,64.781-64.828Z"/>
  <path d="M564.002,51.961c-39.609,0-70.781,32.391-71.953,73.172,0,19.172,7.172,37.172,20.391,50.391,13.172,13.172,31.172,20.391,50.391,20.391,39.609,0,72-32.391,72-72v-2.391c-18-30-32.391-52.781-36-58.781,0,0-1.219-1.172-1.219-2.391-10.828-6-21.609-8.391-33.609-8.391h-.001ZM512.394,123.962c0-28.828,22.828-51.609,51.609-51.609,13.219,0,26.391,6,36,15.609,10.828,9.609,15.609,22.781,15.609,36,0,28.828-22.828,51.609-51.609,51.609-13.219,0-26.391-6-36-15.609-9.609-9.609-15.609-22.828-15.609-36Z"/>
</svg>