<?xml version="1.0" encoding="UTF-8"?>
<svg id="Layer_1" data-name="Layer 1" xmlns="http://www.w3.org/2000/svg" viewBox="0 0 1152.036 1167">
  <defs>
    <style>
      .cls-1 {
        fill: red;
      }

      .cls-1, .cls-2, .cls-3 {
        fill-rule: evenodd;
      }

      .cls-2, .cls-4 {
        fill: #ffd4fc;
      }
    </style>
  </defs>
  <path class="cls-3" d="M739.536,250.7c0,49-39.7,88.7-88.7,88.7s-88.7-39.7-88.7-88.7,39.7-88.7,88.7-88.7,88.7,39.7,88.7,88.7Z"/>
  <path class="cls-3" d="M650.836,160c-50.1,0-90.7,40.6-90.7,90.7s40.6,90.7,90.7,90.7,90.7-40.6,90.7-90.7-40.6-90.7-90.7-90.7h0ZM650.836,164c47.8,0,86.7,38.8,86.7,86.7s-38.8,86.7-86.7,86.7-86.7-38.8-86.7-86.7,38.8-86.7,86.7-86.7h0Z"/>
  <path class="cls-3" d="M302.136,250.7c0,49-39.7,88.7-88.7,88.7s-88.7-39.7-88.7-88.7,39.7-88.7,88.7-88.7,88.7,39.7,88.7,88.7Z"/>
  <path class="cls-3" d="M213.436,160c-50.1,0-90.7,40.6-90.7,90.7s40.6,90.7,90.7,90.7,90.7-40.6,90.7-90.7-40.6-90.7-90.7-90.7h0ZM213.436,164c47.8,0,86.7,38.8,86.7,86.7s-38.8,86.7-86.7,86.7-86.7-38.8-86.7-86.7,38.8-86.7,86.7-86.7h0Z"/>
  <path class="cls-3" d="M225.536,123.8v-55.6c0-6.6-5.4-12-12-12s-12,5.4-12,12v55.6c0,6.6,5.4,12,12,12s12-5.4,12-12Z"/>
  <path class="cls-3" d="M213.536,80.2h437.4c6.6,0,12-5.4,12-12s-5.4-12-12-12H213.536c-6.6,0-12,5.4-12,12s5.4,12,12,12Z"/>
  <path class="cls-3" d="M638.936,68.2v55.6c0,6.6,5.4,12,12,12s12-5.4,12-12v-55.6c0-6.6-5.4-12-12-12s-12,5.4-12,12Z"/>
  <path class="cls-3" d="M420.236,12v56.2c0,6.6,5.4,12,12,12s12-5.4,12-12V12c0-6.6-5.4-12-12-12s-12,5.4-12,12Z"/>
  <path class="cls-3" d="M864.736,548.9h186.2c6.6,0,12-5.4,12-12s-5.4-12-12-12h-186.2c-6.6,0-12,5.4-12,12s5.4,12,12,12h0Z"/>
  <path class="cls-3" d="M950.636,536.9v88c0,6.6,5.4,12,12,12s12-5.4,12-12v-88c0-6.6-5.4-12-12-12s-12,5.4-12,12Z"/>
  <path d="M439.436,662.6h73.7l40.2-131.8v69.7l-19.5,62.1h234.3l-19.5-62.1v-69.7c.1,0,40.1,131.8,40.1,131.8h73.6c-16.7-69-49-191.7-82.4-257.8-11.1-22-44.8-37-69.5-37h-119.2c-24.7,0-58.3,15-69.5,37-33.4,66.1-65.7,188.8-82.4,257.8h.1Z"/>
  <path class="cls-3" d="M437.536,662.1c-.1.6,0,1.2.4,1.7s1,.8,1.6.8h73.7c.9,0,1.7-.6,1.9-1.4l36.3-119v56l-19.4,61.9c-.2.6,0,1.3.3,1.8.4.5,1,.8,1.6.8h234.3c.6,0,1.2-.3,1.6-.8.4-.5.5-1.2.3-1.8l-19.4-61.8v-56l36.2,119c.3.8,1,1.4,1.9,1.4h73.6c.6,0,1.2-.3,1.6-.8.4-.5.5-1.1.4-1.7-16.7-69.1-49.1-192-82.6-258.2-11.4-22.6-45.9-38.1-71.3-38.1h-119.2c-25.3,0-59.8,15.5-71.3,38.1-33.5,66.2-65.9,189.1-82.6,258.2h0l.1-.1ZM442.036,660.6c16.8-69.3,48.7-189.7,81.6-254.9,10.8-21.5,43.7-35.9,67.7-35.9h119.2c24,0,56.9,14.4,67.7,35.9,32.9,65.2,64.8,185.6,81.7,254.9h-69.6c-4.3-14.2-39.5-130.4-39.5-130.4-.3-.9-1.2-1.5-2.2-1.4s-1.7,1-1.7,2v69.7c-.1.2,0,.4,0,.6l18.7,59.5h-228.9l18.7-59.5v-70.3c0-1-.8-1.8-1.8-2s-1.9.4-2.2,1.4l-39.8,130.4h-69.7.1Z"/>
  <path d="M2.036,662.6h73.7l40.2-131.8v69.7l-19.5,62.1h234.3l-19.5-62.1v-69.7c.1,0,40.1,131.8,40.1,131.8h73.6c-16.7-69-49-191.7-82.4-257.8-11.1-22-44.8-37-69.5-37h-119.2c-24.7,0-58.3,15-69.5,37C51.036,470.9,18.736,593.6,2.036,662.6h0Z"/>
  <path class="cls-3" d="M.036,662.1c-.1.6,0,1.2.4,1.7s1,.8,1.6.8h73.7c.9,0,1.7-.6,1.9-1.4l36.3-119v56l-19.4,61.9c-.2.6,0,1.3.3,1.8.4.5,1,.8,1.6.8h234.3c.6,0,1.2-.3,1.6-.8s.5-1.2.3-1.8l-19.4-61.8v-56l36.2,119c.3.8,1,1.4,1.9,1.4h73.6c.6,0,1.2-.3,1.6-.8s.5-1.1.4-1.7c-16.7-69.1-49.1-192-82.6-258.2-11.4-22.6-45.9-38.1-71.3-38.1h-119.2c-25.3,0-59.8,15.5-71.3,38.1C49.136,470.1,16.836,593,.036,662.1H.036ZM4.536,660.6c16.8-69.3,48.7-189.7,81.6-254.9,10.8-21.5,43.7-35.9,67.7-35.9h119.2c24,0,56.9,14.4,67.7,35.9,32.9,65.2,64.8,185.6,81.7,254.9h-69.6l-39.5-130.4c-.3-.9-1.2-1.5-2.2-1.4s-1.7,1-1.7,2v69.7c-.1.2,0,.4,0,.6l18.7,59.5H99.236l18.7-59.5v-70.3c0-1-.8-1.8-1.8-2s-1.9.4-2.2,1.4c0,0-35.4,116.2-39.8,130.4H4.536Z"/>
  <path class="cls-1" d="M589.836,898l62.7-89.9,41.9,234.8-234.8,41.9,62.7-89.9-255.5-178.1,67.5-96.9,255.5,178.1h0Z"/>
  <path class="cls-2" d="M1027.2,753c0,49-39.7,88.7-88.7,88.7s-88.7-39.7-88.7-88.7,39.7-88.7,88.7-88.7,88.7,39.7,88.7,88.7Z"/>
  <path class="cls-3" d="M938.5,662.3c-50.1,0-90.7,40.6-90.7,90.7s40.6,90.7,90.7,90.7,90.7-40.6,90.7-90.7-40.6-90.7-90.7-90.7h0ZM938.5,666.3c47.8,0,86.7,38.8,86.7,86.7s-38.8,86.7-86.7,86.7-86.7-38.8-86.7-86.7,38.8-86.7,86.7-86.7h0Z"/>
  <path class="cls-4" d="M727.1,1164.9h73.7l40.2-131.8v69.7l-19.5,62.1h234.3l-19.5-62.1v-69.7c.1,0,40.1,131.8,40.1,131.8h73.6c-16.7-69-49-191.7-82.4-257.8-11.1-22-44.8-37-69.5-37h-119.2c-24.7,0-58.3,15-69.5,37-33.3,66.1-65.6,188.8-82.3,257.8h0Z"/>
  <path class="cls-3" d="M725.1,1164.4c-.1.6,0,1.2.4,1.7s1,.8,1.6.8h73.7c.9,0,1.7-.6,1.9-1.4l36.3-119v56l-19.4,61.9c-.2.6,0,1.3.3,1.8.4.5,1,.8,1.6.8h234.3c.6,0,1.2-.3,1.6-.8s.5-1.2.3-1.8l-19.4-61.8v-56l36.2,119c.3.8,1,1.4,1.9,1.4h73.6c.6,0,1.2-.3,1.6-.8s.5-1.1.4-1.7c-16.7-69.1-49.1-192-82.6-258.2-11.4-22.6-45.9-38.1-71.3-38.1h-119.2c-25.3,0-59.8,15.5-71.3,38.1-33.4,66.1-65.7,189-82.5,258.1h0ZM729.6,1162.9c16.8-69.3,48.7-189.7,81.6-254.9,10.8-21.5,43.7-35.9,67.7-35.9h119.2c24,0,56.9,14.4,67.7,35.9,32.9,65.2,64.8,185.6,81.7,254.9h-69.6l-39.5-130.4c-.3-.9-1.2-1.5-2.2-1.4s-1.7,1-1.7,2v69.7c-.1.2,0,.4,0,.6l18.7,59.5h-228.9l18.7-59.5v-70.3c0-1-.8-1.8-1.8-2s-1.9.4-2.2,1.4c0,0-35.4,116.2-39.8,130.4h-69.6Z"/>
</svg>