<?xml version="1.0" encoding="UTF-8"?>
<svg id="Layer_1" data-name="Layer 1" xmlns="http://www.w3.org/2000/svg" viewBox="0 0 985.96 985.97">
  <path d="M492.98.01C362.24.01,236.85,51.948,144.37,144.38,51.932,236.864,0,362.25,0,492.99s51.938,256.13,144.37,348.61c92.484,92.438,217.87,144.37,348.61,144.37s256.13-51.938,348.61-144.37c92.438-92.484,144.37-217.87,144.37-348.61-.094-130.74-52.078-256.03-144.52-348.47S623.7.1,492.97,0l.01.01ZM492.98,969.75c-126.42,0-247.69-50.25-337.13-139.64C66.459,740.672,16.21,619.4,16.21,492.98s50.25-247.69,139.64-337.13C245.288,66.459,366.56,16.21,492.98,16.21s247.69,50.25,337.13,139.64c89.391,89.438,139.64,210.71,139.64,337.13-.141,126.42-50.438,247.6-139.78,336.98-89.391,89.344-210.56,139.64-336.98,139.78l-.01.01ZM306.37,537.23c58.219,0,110.72-35.062,132.98-88.828,22.312-53.766,10.031-115.69-31.078-156.89-41.156-41.203-103.03-53.578-156.84-31.406-53.812,22.219-88.969,74.672-89.062,132.89,0,79.547,64.406,144.1,144,144.24v-.006ZM306.37,265.49c51.656,0,98.297,31.125,118.03,78.891,19.781,47.766,8.766,102.75-27.797,139.26-36.609,36.516-91.594,47.391-139.31,27.516-47.719-19.828-78.797-66.516-78.703-118.17.281-70.406,57.375-127.36,127.78-127.5v.003ZM306.37,449.99c22.922-.047,43.547-13.875,52.312-35.062s3.891-45.562-12.281-61.781-40.547-21.141-61.734-12.422-35.109,29.344-35.203,52.266c-.047,15.094,5.906,29.625,16.594,40.312s25.172,16.688,40.312,16.688h0ZM306.37,352.724c16.359.047,31.125,9.984,37.312,25.125,6.234,15.188,2.719,32.625-8.953,44.156-11.625,11.531-29.109,14.906-44.203,8.531-15.094-6.328-24.891-21.188-24.797-37.547.141-22.312,18.328-40.312,40.641-40.266h0ZM228.745,190.204c2.156-3.844,7.078-5.25,10.969-3.094,3.234,1.734,78.609,41.766,137.48-38.484l.047-.047c.984-2.25,3-3.984,5.391-4.594,2.438-.609,5.016-.094,6.984,1.453,1.969,1.5,3.141,3.844,3.188,6.375,0,2.484-1.125,4.828-3.094,6.422-33,44.625-71.25,56.25-102,56.25-19.688,0-39.188-4.5-56.859-13.266-3.656-2.531-4.641-7.547-2.109-11.25l.004.234ZM226.729,580.484c-.844,3.656-4.125,6.234-7.875,6.234h-2.016c-134.26-33-125.02-150-125.02-151.36h.047c0-2.297.984-4.453,2.672-5.953,1.688-1.547,3.938-2.297,6.188-2.062,2.25.188,4.312,1.359,5.719,3.141,1.359,1.828,1.922,4.125,1.547,6.375,0,4.266-7.734,104.48,112.5,134.11,2.062.422,3.938,1.641,5.109,3.469,1.172,1.781,1.547,3.938,1.125,6.047h.004ZM679.589,536.75v-.047c58.266,0,110.81-35.109,133.08-88.922,22.266-53.859,9.891-115.83-31.312-156.98-41.25-41.156-103.22-53.391-157.03-31.031s-88.828,74.953-88.734,133.22c0,38.203,15.141,74.859,42.141,101.95,27,27.047,63.656,42.234,101.86,42.281l-.005-.471ZM679.589,265.01v-.047c51.656,0,98.25,31.078,118.03,78.797s8.906,102.66-27.609,139.22c-36.469,36.516-91.359,47.531-139.13,27.844-47.719-19.688-78.938-66.234-79.031-117.84.188-70.453,57.328-127.45,127.74-127.5v-.474ZM679.589,449.51v-.047c22.969,0,43.688-13.875,52.453-35.109,8.766-21.234,3.891-45.656-12.375-61.875-16.312-16.172-40.734-21-61.969-12.141-21.188,8.859-34.922,29.672-34.828,52.641-.047,15.047,5.906,29.531,16.547,40.219,10.641,10.688,25.125,16.734,40.172,16.781v-.469ZM679.589,352.244v-.047c16.359,0,31.125,9.844,37.406,24.938,6.281,15.141,2.859,32.531-8.672,44.109-11.531,11.625-28.922,15.141-44.062,8.953-15.141-6.188-25.078-20.859-25.172-37.219.234-22.266,18.281-40.219,40.5-40.266v-.468ZM595.214,157.954c-1.922-1.547-3.047-3.891-3.047-6.422,0-2.484,1.172-4.828,3.188-6.375,1.969-1.5,4.547-2.016,6.938-1.406,2.438.609,4.453,2.297,5.438,4.594,59.625,80.484,134.76,40.266,137.48,38.484,1.922-1.312,4.266-1.734,6.469-1.219,2.25.516,4.172,1.969,5.297,3.938,1.078,2.016,1.312,4.406.562,6.562-.703,2.203-2.344,3.938-4.453,4.875-17.672,8.719-37.125,13.266-56.859,13.219-29.766,0-68.016-11.625-101.02-56.25h.008ZM877.954,437.094c-.375-2.25.188-4.547,1.547-6.328,1.406-1.828,3.469-2.953,5.719-3.188,2.25-.188,4.5.562,6.188,2.062,1.688,1.547,2.672,3.703,2.672,5.953,0,1.125,9.234,118.36-125.02,151.36h-2.016.047c-3.75,0-7.031-2.578-7.875-6.234-.516-2.109-.188-4.312.938-6.141s2.953-3.141,5.062-3.609c120.89-29.484,113.11-129.61,112.73-133.87l.009-.006ZM581.694,592.954c-58.125-31.219-128.34-29.578-184.97,4.266-56.625,33.891-91.312,95.016-91.266,161.02v63.891-.047c.047,4.453,3.656,8.062,8.109,8.156h358.5c4.453-.094,8.062-3.703,8.156-8.156v-63.844c.047-33.891-9.094-67.125-26.438-96.234s-42.281-52.969-72.094-69.047l.002-.005ZM573.96,607.345c10.641,5.719,20.672,12.562,29.859,20.391-68.578,39.234-152.86,39.234-221.48,0,53.531-45.703,129.66-53.859,191.63-20.531l-.009.14ZM323.98,813.735c27.516-53.484,94.734-89.109,168.89-89.109s141.52,35.766,168.89,89.109h-337.78ZM663.87,786.219c-35.109-48-99.984-77.859-171-77.859s-135.89,30.75-170.9,78.375v-28.5c0-44.297,17.203-86.812,48-118.64,37.172,22.312,79.688,34.125,123.05,34.125s85.922-11.812,123.1-34.125c30.703,31.828,47.859,74.391,47.859,118.64l-.109,27.984Z"/>
</svg>