<?xml version="1.0" encoding="UTF-8"?>
<svg id="Layer_1" data-name="Layer 1" xmlns="http://www.w3.org/2000/svg" viewBox="0 0 1200 1200.037">
  <path d="M65.578,900.01v18.75c0,10.359,8.391,18.75,18.75,18.75s18.75-8.391,18.75-18.75v-18.75c0-10.359-8.391-18.75-18.75-18.75s-18.75,8.391-18.75,18.75Z"/>
  <path d="M103.073,993.75c0-10.359-8.391-18.75-18.75-18.75s-18.75,8.391-18.75,18.75v18.75c0,10.359,8.391,18.75,18.75,18.75s18.75-8.391,18.75-18.75v-18.75Z"/>
  <path d="M84.328,1068.71c-10.359,0-18.75,8.391-18.75,18.75v18.75c0,10.359,8.391,18.75,18.75,18.75s18.75-8.391,18.75-18.75v-18.75c0-10.359-8.391-18.75-18.75-18.75Z"/>
  <path d="M1181.253,806.27h-75v37.5h56.25v318.74h-93.75v-525c0-10.359-8.391-18.75-18.75-18.75h-46.875v-65.625c0-10.359-8.391-18.75-18.75-18.75s-18.75,8.391-18.75,18.75v65.625h-46.875c-10.359,0-18.75,8.391-18.75,18.75v525h-75v-403.13h37.5v-37.5h-56.25c-10.359,0-18.75,8.391-18.75,18.75v421.87h-63.094c-8.719-53.484-15.234-103.78-19.922-151.08,27.984-5.391,47.484-30.891,45.375-59.344-2.156-28.406-25.219-50.766-53.672-51.938-10.406-220.64,19.641-354.24,30.375-393.98,14.016-.469,27.281-6.562,36.844-16.875l44.625-48c7.734-8.344,9.75-20.484,5.203-30.891-4.312-10.031-14.156-16.594-25.078-16.641h-38.156v-37.5c14.109-.141,26.906-8.297,32.953-21.047l30.844-64.641c3.891-8.719.797-18.984-7.266-24.141,0,0-127.82-76.312-129.28-76.781l6.234-30.047c4.359-20.859-10.266-45.844-33.422-45.844h-31.312V18.75c0-10.359-8.391-18.75-18.75-18.75s-18.75,8.391-18.75,18.75v75h-31.312c-23.297,0-37.875,24.609-33.422,45.844l6.234,30.047c-1.406.422-129.19,76.734-129.24,76.781h-.047c-8.016,5.203-11.062,15.422-7.266,24.141l30.844,64.641v.047c6.047,12.703,18.844,20.859,32.953,21v37.5h-38.156c-10.922.047-20.766,6.609-25.078,16.641-4.547,10.406-2.531,22.547,5.203,30.891l44.625,48c9.562,10.312,22.781,16.406,36.844,16.875,10.734,39.703,40.781,173.29,30.375,393.94v.047c-28.453,1.172-51.516,23.531-53.672,51.938-2.109,28.453,17.391,53.953,45.375,59.344-4.688,47.297-11.203,97.594-19.922,151.08h-63.094v-421.87c0-10.359-8.391-18.75-18.75-18.75h-56.25v37.5h37.5v403.13h-75v-525c0-10.359-8.391-18.75-18.75-18.75h-4.594l-14.859-52.031c-2.297-8.062-9.656-13.594-18.047-13.594h-9.375v-56.25c0-10.359-8.391-18.75-18.75-18.75s-18.75,8.391-18.75,18.75v56.25h-9.375c-8.391,0-15.75,5.531-18.047,13.594l-14.859,52.031h-4.594c-10.359,0-18.75,8.391-18.75,18.75v525H37.5v-318.74h56.25v-37.5H18.75c-10.359,0-18.75,8.391-18.75,18.75v356.26c0,10.359,8.391,18.75,18.75,18.75h1162.5c10.359,0,18.75-8.391,18.75-18.75v-356.26c0-10.359-8.391-18.75-18.75-18.75l.003-.007ZM937.513,656.27h93.75v506.26h-93.75v-506.26ZM666.803,1012.53c4.688,46.922,11.109,96.938,19.641,150h-67.688v-150h48.047ZM541.693,900.03c10.031-209.95-15.984-341.9-29.297-393.74h68.859v393.74h-39.562ZM618.755,506.29h68.859c-13.312,51.844-39.328,183.79-29.297,393.74h-39.562v-393.74ZM646.88,131.29c0,.234-.047.516-.094.75l-7.594,36.75h-78.375l-7.641-36.75h.047c-.047-.234-.094-.516-.094-.75h93.75ZM533.44,206.29h133.13l62.578,37.5h-258.24l62.532-37.5ZM432.85,281.29h334.31l-17.906,37.5h-298.5l-17.904-37.5ZM487.506,356.29h225v37.5h-225v-37.5ZM433.834,431.29h332.34l-30.234,32.484c-2.766,3.141-6.75,4.969-10.922,5.016h-250.03c-4.172-.047-8.156-1.875-10.922-5.016l-30.232-32.484ZM487.506,956.29c0-10.359,8.391-18.75,18.75-18.75h187.5c10.359,0,18.75,8.391,18.75,18.75s-8.391,18.75-18.75,18.75h-187.5c-10.359,0-18.75-8.391-18.75-18.75h0ZM533.209,1012.54h48.047v150h-67.688c8.578-53.062,15-103.08,19.641-150ZM168.759,656.28c8.391,0,15.703-5.531,18.047-13.594l14.859-52.031h27.938l14.859,52.031c2.344,8.062,9.656,13.594,18.047,13.594v506.26h-93.75v-506.26Z"/>
  <path d="M1124.953,768.75h37.5v-56.25c0-10.359-8.391-18.75-18.75-18.75h-37.5v37.5h18.75v37.5Z"/>
  <path d="M984.323,881.27c-10.359,0-18.75,8.391-18.75,18.75v18.75c0,10.359,8.391,18.75,18.75,18.75s18.75-8.391,18.75-18.75v-18.75c0-10.359-8.391-18.75-18.75-18.75Z"/>
  <path d="M984.323,975.01c-10.359,0-18.75,8.391-18.75,18.75v18.75c0,10.359,8.391,18.75,18.75,18.75s18.75-8.391,18.75-18.75v-18.75c0-10.359-8.391-18.75-18.75-18.75Z"/>
  <path d="M984.323,1068.71c-10.359,0-18.75,8.391-18.75,18.75v18.75c0,10.359,8.391,18.75,18.75,18.75s18.75-8.391,18.75-18.75v-18.75c0-10.359-8.391-18.75-18.75-18.75Z"/>
  <path d="M984.323,693.75c-10.359,0-18.75,8.391-18.75,18.75v18.75c0,10.359,8.391,18.75,18.75,18.75s18.75-8.391,18.75-18.75v-18.75c0-10.359-8.391-18.75-18.75-18.75Z"/>
  <path d="M984.323,787.51c-10.359,0-18.75,8.391-18.75,18.75v18.75c0,10.359,8.391,18.75,18.75,18.75s18.75-8.391,18.75-18.75v-18.75c0-10.359-8.391-18.75-18.75-18.75Z"/>
  <path d="M74.953,731.27h18.75v-37.5h-37.5c-10.359,0-18.75,8.391-18.75,18.75v56.25h37.5v-37.5Z"/>
</svg>