<?xml version="1.0" encoding="UTF-8"?>
<svg id="Layer_1" data-name="Layer 1" xmlns="http://www.w3.org/2000/svg" viewBox="0 0 1087.48 1087.48">
  <defs>
    <style>
      .cls-1 {
        fill-rule: evenodd;
      }
    </style>
  </defs>
  <path class="cls-1" d="M543.74,0c300.1,0,543.74,243.66,543.74,543.74s-243.66,543.74-543.74,543.74S0,843.82,0,543.74,243.66,0,543.74,0ZM543.74,37.5c-279.42,0-506.26,226.82-506.26,506.26s226.82,506.26,506.26,506.26,506.26-226.82,506.26-506.26S823.18,37.5,543.74,37.5ZM455.334,751.45c-2.625-10.031,3.422-20.25,13.453-22.875s20.25,3.422,22.875,13.453c8.812,33.984,19.875,59.109,33.047,75.562,10.172,12.656,21.281,19.594,33.656,19.453,13.781-.141,28.078-8.109,43.031-21.703,17.906-16.266,36-40.5,53.812-71.906,5.109-9,16.547-12.188,25.547-7.078s12.188,16.547,7.078,25.547c-24.375,43.031-49.781,73.781-74.109,91.781-18.844,13.922-37.5,20.625-54.984,20.812-22.781.234-44.578-10.125-63.281-33.469-15.703-19.547-29.625-49.125-40.125-89.625v.048ZM274.154,611.11c4.781-9.188,16.125-12.703,25.312-7.922s12.703,16.125,7.922,25.312l-28.125,53.766c-4.781,9.188-16.125,12.703-25.312,7.922s-12.703-16.125-7.922-25.312l28.125-53.766ZM705.734,228.42c-.188-10.312,8.109-18.891,18.469-19.031,10.359-.188,18.891,8.062,19.031,18.422.094,7.547-.656,27.047,3.656,48.891,3.844,19.594,11.719,41.531,29.672,56.812,25.312,21.562,68.812,28.312,143.26,4.078,9.844-3.188,20.438,2.203,23.625,12.047s-2.203,20.438-12.047,23.625c-93.234,30.328-147.47,15.844-179.16-11.156-47.953-40.875-46.219-115.59-46.5-133.64l-.006-.048ZM505.204,220.779c2.016-10.172,11.906-16.781,22.031-14.719,10.125,2.016,16.781,11.906,14.719,22.031-13.922,70.031-61.359,150-140.16,181.5-52.453,20.953-119.16,21.094-199.6-18.844-9.281-4.594-13.031-15.844-8.438-25.125s15.844-13.078,25.125-8.438c68.156,33.844,124.55,35.344,168.98,17.625,66.516-26.578,105.56-94.875,117.28-153.98l.062-.051ZM688.864,477.139c23.297-103.08,96.938-26.531,103.97-17.109,41.438,55.641,50.297,157.97-6.797,165.47-73.031,9.656-91.312-93.047-97.172-148.36h-.001ZM458.284,444.983c76.922-72.469,95.25,32.203,95.766,43.922,3.281,69.281-46.547,159.1-98.109,133.4-65.906-32.812-23.719-128.21,2.344-177.37v.048ZM186.464,606.703c4.547-9.281,15.797-13.125,25.078-8.578s13.125,15.797,8.625,25.078l-26.391,53.859c-4.547,9.281-15.797,13.125-25.078,8.578s-13.125-15.797-8.625-25.078l26.391-53.859ZM878.724,633.703c4.781-9.188,16.125-12.703,25.312-7.922,9.141,4.781,12.703,16.125,7.922,25.312l-28.172,53.766c-4.781,9.188-16.125,12.703-25.312,7.922-9.141-4.781-12.703-16.125-7.922-25.312l28.172-53.719v-.047ZM958.412,645.797c5.859-8.531,17.531-10.734,26.062-4.875,8.531,5.812,10.734,17.531,4.875,26.062l-29.156,42.656c-5.812,8.531-17.531,10.734-26.062,4.875-8.531-5.812-10.734-17.531-4.875-26.062l29.156-42.656Z"/>
</svg>