<?xml version="1.0" encoding="UTF-8"?>
<svg id="Layer_1" data-name="Layer 1" xmlns="http://www.w3.org/2000/svg" viewBox="0 0 1079.997 1080.001">
  <path d="M973.8,317.16c13.918-18.121,22.199-40.68,22.199-65.16,0-59.52-48.48-108-108-108s-108,48.48-108,108c0,24.48,8.281,47.039,22.078,65.16-61.078,16.68-106.08,72.602-106.08,138.84v192c0,26.398,21.48,48,48,48v300c0,46.32,37.68,84,84,84,23.52,0,44.762-9.719,60-25.32,15.238,15.602,36.48,25.32,60,25.32,46.32,0,84-37.68,84-84v-300c26.398,0,48-21.602,48-48v-192c0-66.238-45.121-122.16-106.2-138.84h.003ZM887.999,192c33,0,60,26.879,60,60s-27,60-60,60-60-26.879-60-60,26.879-60,60-60ZM863.999,996c0,19.801-16.199,36-36,36-19.922,0-36-16.199-36-36v-300h72v300ZM983.999,996c0,19.801-16.199,36-36,36-19.922,0-36-16.199-36-36v-300h72v300ZM1031.999,648h-288v-192c0-52.922,43.078-96,96-96h96c52.922,0,96,43.078,96,96v192Z"/>
  <path d="M580.8,252.6c-48-35.281-115.8-24.961-151.08,23.039-15.602,21.238-22.199,46.441-20.641,70.922-26.281-13.078-55.922-17.879-85.559-13.32-38.039,5.762-71.52,26.039-94.199,57l-113.76,154.68c-7.559,10.32-10.68,23.039-8.762,35.762,1.922,12.602,8.641,23.762,18.961,31.32l18.238,13.438v370.56c0,46.32,37.68,84,84,84,17.762,0,34.32-5.641,48-15.238,13.559,9.602,30.121,15.238,48,15.238,46.32,0,84-37.68,84-84v-200.52l130.68-177.72c22.801-31.078,32.16-69,26.281-107.04-3.602-24.121-13.199-46.441-27.602-65.281,25.801-5.039,49.801-19.199,66.48-41.879,17.039-23.16,24.121-51.719,19.68-80.281-4.32-28.441-19.559-53.641-42.719-70.68h.002ZM228,1032c-19.922,0-36-16.199-36-36v-335.28l48,35.281v300c0,10.922,2.16,21.359,6,30.961-5.398,3.117-11.398,5.039-18,5.039h0ZM360,996c0,19.801-16.199,36-36,36-19.922,0-36-16.199-36-36v-176.16c14.039,8.641,30,13.441,46.441,13.441,4.559,0,9.238-.359,13.801-1.078,3.961-.602,7.922-1.559,11.762-2.641l-.004,166.438ZM500.04,589.32l-2.641,3.481-128.88,175.32c-13.68,18.719-40.078,22.68-58.801,9-18.602-13.68-22.559-40.078-8.879-58.801l117.24-159.48c.84-1.199,1.559-2.398,2.16-3.719,5.039-10.199,2.281-22.801-7.32-29.762-10.68-7.922-25.68-5.641-33.48,5.039l-99.48,135.36-125.76-92.398,113.76-154.68c15.121-20.641,37.441-34.199,62.879-38.039,25.32-3.84,50.641,2.398,71.281,17.52l77.398,56.879c42.605,31.32,51.844,91.562,20.523,134.28h0ZM565.2,375.12c-19.68,26.762-57.238,32.398-84,12.84-26.641-19.559-32.398-57.238-12.719-83.879,11.762-15.961,29.879-24.48,48.359-24.48,12.359,0,24.84,3.84,35.52,11.641,12.84,9.48,21.359,23.52,23.762,39.359,2.398,15.84-1.441,31.68-10.922,44.52h0Z"/>
  <path d="M168,384c3,0,6.121-.602,9.121-1.801,9-3.719,14.879-12.48,14.879-22.199v-72h120c39.719,0,72-32.281,72-72V72c0-39.719-32.281-72-72-72H72C32.281,0,0,32.281,0,72v144c0,36,26.641,66,61.199,71.16l89.762,89.762c4.68,4.68,10.801,7.078,17.039,7.078h0ZM144,302.039l-55.078-55.078c-4.441-4.441-10.562-6.961-16.922-6.961-13.32,0-24-10.801-24-24V72c0-13.199,10.68-24,24-24h240c13.199,0,24,10.801,24,24v144c0,13.199-10.801,24-24,24h-144c-13.32,0-24,10.68-24,24v38.039Z"/>
</svg>